SplineFontDB: 3.2
FontName: Children-Regular
FullName: Children
FamilyName: Children
Weight: Book
Copyright: Made with yourfonts.com. Copyright (c) 2009 Chino N. Embalsado. All rights reserved.
Version: 1.00 March 9, 2009, initial release, www.yourfonts.com
ItalicAngle: 0
UnderlinePosition: -292
UnderlineWidth: 150
Ascent: 1638
Descent: 410
InvalidEm: 0
sfntRevision: 0x00010000
LayerCount: 2
Layer: 0 1 "Back" 1
Layer: 1 1 "Fore" 0
XUID: [1021 897 1223096417 27258]
StyleMap: 0x0040
FSType: 8
OS2Version: 2
OS2_WeightWidthSlopeOnly: 0
OS2_UseTypoMetrics: 0
CreationTime: 1236635267
ModificationTime: 1730564501
PfmFamily: 65
TTFWeight: 400
TTFWidth: 5
LineGap: 0
VLineGap: 0
Panose: 3 0 0 0 0 0 0 0 0 0
OS2TypoAscent: 1813
OS2TypoAOffset: 0
OS2TypoDescent: -642
OS2TypoDOffset: 0
OS2TypoLinegap: 205
OS2WinAscent: 2398
OS2WinAOffset: 0
OS2WinDescent: 679
OS2WinDOffset: 0
HheadAscent: 2398
HheadAOffset: 0
HheadDescent: -679
HheadDOffset: 0
OS2SubXSize: 1434
OS2SubYSize: 1331
OS2SubXOff: 0
OS2SubYOff: 283
OS2SupXSize: 1434
OS2SupYSize: 1331
OS2SupXOff: 0
OS2SupYOff: 977
OS2StrikeYSize: 102
OS2StrikeYPos: 530
OS2CapHeight: 1643
OS2XHeight: 1171
OS2Vendor: 'YOUR'
OS2CodePages: 00000001.00000000
OS2UnicodeRanges: 80000003.0000000a.00000000.00000000
DEI: 91125
ShortTable: maxp 16
  1
  0
  115
  93
  5
  0
  0
  0
  0
  0
  0
  0
  0
  0
  0
  0
EndShort
LangName: 1033 "Made with yourfonts.com. Copyright +AKkA 2009 Chino N. Embalsado. All rights reserved." "" "" "Children - Regular" "" "Version 1.00 March 9, 2009, initial release, www.yourfonts.com" "" "" "" "" "This font was created using the online font generation service from yourfonts.com"
GaspTable: 1 65535 2 1
Encoding: UnicodeBmp
UnicodeInterp: none
NameList: AGL For New Fonts
DisplaySize: -48
AntiAlias: 1
FitToEm: 0
WinInfo: 38 38 14
BeginChars: 65539 136

StartChar: .notdef
Encoding: 65536 -1 0
Width: 1323
GlyphClass: 1
Flags: W
LayerCount: 2
Fore
SplineSet
60 0 m 1,0,-1
 1243 0 l 1,1,-1
 1243 1643 l 1,2,-1
 60 1643 l 1,3,-1
 60 0 l 1,0,-1
140 80 m 1,4,-1
 140 1563 l 1,5,-1
 1163 1563 l 1,6,-1
 1163 80 l 1,7,-1
 140 80 l 1,4,-1
EndSplineSet
Validated: 9
EndChar

StartChar: exclam
Encoding: 33 33 4
Width: 347
GlyphClass: 1
Flags: W
LayerCount: 2
Fore
SplineSet
100 1638 m 1,0,-1
 81 1544 l 1,1,-1
 81 1393 l 2,2,3
 78 910 78 910 115 789 c 1,4,5
 65 886 65 886 56 605 c 1,6,-1
 226 605 l 1,7,8
 251 1008 251 1008 251 1091 c 1,9,-1
 270 1166 l 1,10,11
 251 1166 251 1166 251 1185 c 1,12,13
 270 1185 270 1185 270 1204 c 2,14,-1
 270 1223 l 1,15,-1
 194 1638 l 1,16,-1
 100 1638 l 1,0,-1
84 128 m 2,18,-1
 84 33 l 2,19,20
 84 -4 84 -4 122 -4 c 2,21,-1
 178 -4 l 1,22,23
 273 46 273 46 273 71 c 1,24,-1
 254 109 l 1,25,-1
 273 109 l 1,26,27
 273 145 273 145 235 203 c 1,28,17
 84 177 84 177 84 128 c 2,18,-1
EndSplineSet
Validated: 41
EndChar

StartChar: quotedbl
Encoding: 34 34 5
Width: 593
GlyphClass: 1
Flags: W
LayerCount: 2
Fore
SplineSet
451 1664 m 1,0,1
 394 1636 394 1636 394 1608 c 1,2,-1
 413 1494 l 1,3,-1
 394 1457 l 1,4,5
 414 1421 414 1421 432 1268 c 1,6,-1
 526 1268 l 1,7,8
 526 1286 526 1286 545 1324 c 1,9,10
 515 1382 515 1382 489 1664 c 1,11,-1
 451 1664 l 1,0,1
111 1645 m 1,12,-1
 92 1513 l 1,13,-1
 92 1343 l 1,14,-1
 111 1249 l 1,15,-1
 205 1268 l 1,16,-1
 205 1645 l 1,17,-1
 111 1645 l 1,12,-1
EndSplineSet
Validated: 9
EndChar

StartChar: numbersign
Encoding: 35 35 6
Width: 1481
GlyphClass: 1
Flags: W
LayerCount: 2
Fore
SplineSet
995 1190 m 2,0,1
 963 1190 963 1190 939 1096 c 1,2,3
 957 967 957 967 957 888 c 1,4,-1
 942 773 l 1,5,-1
 508 773 l 1,6,7
 514 967 514 967 494 996 c 1,8,9
 513 996 513 996 513 1015 c 2,10,-1
 513 1034 l 1,11,-1
 494 1166 l 1,12,-1
 457 1166 l 1,13,-1
 400 1128 l 1,14,-1
 419 996 l 1,15,-1
 429 945 l 1,16,-1
 395 773 l 1,17,-1
 338 773 l 2,18,19
 296 773 296 773 263 791 c 1,20,21
 55 749 55 749 55 716 c 2,22,-1
 55 697 l 2,23,24
 55 659 55 659 93 659 c 2,25,-1
 112 659 l 2,26,27
 157 659 157 659 282 697 c 1,28,-1
 319 678 l 1,29,-1
 357 697 l 1,30,31
 395 697 395 697 395 659 c 2,32,-1
 395 395 l 2,33,34
 395 357 395 357 357 357 c 2,35,-1
 93 357 l 2,36,37
 61 357 61 357 55 319 c 1,38,39
 55 264 55 264 282 244 c 1,40,41
 313 263 313 263 376 263 c 2,42,-1
 395 263 l 1,43,44
 395 219 395 219 376 187 c 1,45,46
 388 -2 388 -2 433 -2 c 2,47,-1
 470 -2 l 1,48,-1
 508 17 l 1,49,-1
 470 244 l 1,50,-1
 603 244 l 2,51,52
 708 244 708 244 924 225 c 1,53,-1
 924 17 l 1,54,-1
 942 -21 l 1,55,56
 1037 -6 1037 -6 1037 36 c 2,57,-1
 1037 206 l 1,58,-1
 1339 206 l 1,59,60
 1396 236 1396 236 1396 263 c 1,61,-1
 1377 300 l 1,62,63
 1056 327 1056 327 1056 376 c 0,64,65
 1056 491 1056 491 1075 621 c 1,66,67
 1075 697 1075 697 1320 697 c 2,68,-1
 1396 697 l 1,69,-1
 1396 773 l 1,70,71
 1317 773 1317 773 1188 791 c 1,72,-1
 1075 773 l 1,73,-1
 1075 791 l 1,74,75
 1090 1005 1090 1005 1052 1077 c 1,76,77
 1071 1109 1071 1109 1071 1153 c 0,78,79
 1071 1184 1071 1184 1033 1190 c 1,80,-1
 995 1190 l 2,0,1
924 678 m 1,81,-1
 961 659 l 1,82,-1
 942 527 l 1,83,-1
 942 376 l 1,84,-1
 924 338 l 1,85,86
 740 357 740 357 640 357 c 2,87,-1
 489 357 l 1,88,89
 489 410 489 410 508 489 c 1,90,91
 489 594 489 594 489 678 c 1,92,-1
 924 678 l 1,81,-1
EndSplineSet
Validated: 41
EndChar

StartChar: dollar
Encoding: 36 36 7
Width: 1216
GlyphClass: 1
Flags: W
LayerCount: 2
Fore
SplineSet
631 1656 m 1,0,-1
 574 1618 l 1,1,2
 574 1586 574 1586 612 1524 c 1,3,4
 570 1469 570 1469 570 1454 c 0,5,6
 570 1436 570 1436 589 1398 c 1,7,8
 576 1398 576 1398 324 1341 c 1,9,10
 102 1194 102 1194 60 1001 c 1,11,-1
 60 926 l 1,12,13
 137 680 137 680 475 680 c 2,14,-1
 551 680 l 1,15,-1
 551 340 l 1,16,-1
 532 302 l 1,17,18
 414 302 414 302 154 453 c 1,19,20
 79 444 79 444 79 397 c 1,21,-1
 98 359 l 1,22,23
 302 229 302 229 513 189 c 1,24,-1
 528 188 l 1,25,-1
 529 36 l 2,26,27
 529 -2 529 -2 567 -2 c 2,28,-1
 605 -2 l 2,29,30
 643 -2 643 -2 643 36 c 2,31,-1
 643 206 l 1,32,33
 609 227 609 227 796 227 c 1,34,-1
 834 208 l 1,35,36
 1136 289 1136 289 1136 453 c 0,37,38
 1136 869 1136 869 702 869 c 1,39,-1
 721 907 l 1,40,-1
 721 1228 l 1,41,-1
 702 1265 l 1,42,43
 769 1265 769 1265 891 1171 c 1,44,-1
 872 1133 l 1,45,46
 919 1058 919 1058 947 1058 c 1,47,48
 1004 1088 1004 1088 1004 1114 c 2,49,-1
 1004 1133 l 1,50,51
 1010 1204 1010 1204 952 1298 c 1,52,53
 693 1331 693 1331 687 1505 c 1,54,-1
 706 1580 l 1,55,56
 679 1656 679 1656 649 1656 c 2,57,-1
 631 1656 l 1,0,-1
570 1284 m 2,59,-1
 589 1284 l 1,60,-1
 608 1020 l 1,61,62
 589 844 589 844 589 812 c 1,63,-1
 457 793 l 1,64,-1
 438 793 l 2,65,66
 226 793 226 793 154 1001 c 1,67,58
 301 1284 301 1284 570 1284 c 2,59,-1
664 491 m 2,68,69
 664 737 664 737 721 737 c 2,70,-1
 872 737 l 1,71,72
 947 686 947 686 1013 491 c 1,73,74
 892 265 892 265 664 302 c 1,75,-1
 664 491 l 2,68,69
EndSplineSet
Validated: 41
EndChar

StartChar: percent
Encoding: 37 37 8
Width: 1688
GlyphClass: 1
Flags: W
LayerCount: 2
Fore
SplineSet
1375 1632 m 1,0,1
 1161 1443 1161 1443 891 982 c 0,2,3
 569 425 569 425 513 378 c 1,4,5
 261 120 261 120 261 30 c 2,6,-1
 261 -8 l 1,7,-1
 317 -8 l 1,8,9
 681 415 681 415 796 605 c 1,10,11
 1361 1463 1361 1463 1470 1595 c 1,12,13
 1470 1626 1470 1626 1432 1632 c 1,14,-1
 1375 1632 l 1,0,1
648 1652 m 2,15,16
 629 1652 629 1652 629 1633 c 1,17,18
 427 1555 427 1555 346 1312 c 1,19,-1
 346 1218 l 2,20,21
 346 1122 346 1122 686 1029 c 1,22,23
 837 1074 837 1074 837 1086 c 1,24,25
 943 1086 943 1086 988 1463 c 1,26,27
 988 1595 988 1595 724 1652 c 1,28,-1
 648 1652 l 2,15,16
648 1558 m 1,30,-1
 724 1558 l 2,31,32
 828 1558 828 1558 875 1463 c 1,33,-1
 875 1425 l 2,34,35
 875 1142 875 1142 667 1142 c 0,36,37
 596 1142 596 1142 459 1237 c 1,38,29
 459 1459 459 1459 648 1558 c 1,30,-1
1077 605 m 1,39,40
 737 483 737 483 737 209 c 2,41,-1
 737 190 l 2,42,43
 737 15 737 15 1020 -18 c 1,44,-1
 1039 -18 l 2,45,46
 1248 -18 1248 -18 1341 303 c 1,47,48
 1341 438 1341 438 1096 605 c 1,49,-1
 1077 605 l 1,39,40
1001 473 m 1,51,52
 1228 392 1228 392 1228 322 c 1,53,54
 1196 322 1196 322 1190 284 c 1,55,-1
 1190 266 l 1,56,-1
 1209 228 l 1,57,-1
 1190 228 l 1,58,59
 1108 99 1108 99 1077 96 c 2,60,-1
 1001 96 l 2,61,62
 832 96 832 96 832 247 c 0,63,50
 832 379 832 379 1001 473 c 1,51,52
EndSplineSet
Validated: 9
EndChar

StartChar: ampersand
Encoding: 38 38 9
Width: 914
GlyphClass: 1
Flags: W
LayerCount: 2
Fore
SplineSet
787 1634 m 1,0,-1
 693 1615 l 1,1,-1
 702 1360 l 1,2,3
 566 1435 566 1435 494 1435 c 0,4,5
 60 1435 60 1435 60 963 c 1,6,7
 80 888 80 888 117 831 c 1,8,-1
 117 756 l 1,9,10
 60 684 60 684 60 586 c 2,11,-1
 60 435 l 1,12,13
 155 265 155 265 287 265 c 2,14,-1
 381 265 l 2,15,16
 479 265 479 265 608 340 c 1,17,-1
 626 340 l 1,18,19
 626 320 626 320 608 284 c 1,20,21
 622 0 622 0 664 0 c 2,22,-1
 740 0 l 1,23,-1
 740 208 l 1,24,-1
 721 246 l 1,25,26
 740 246 740 246 740 265 c 2,27,-1
 740 321 l 2,28,29
 740 408 740 408 759 642 c 1,30,31
 740 642 740 642 740 661 c 1,32,-1
 645 642 l 1,33,34
 645 359 645 359 305 359 c 1,35,36
 136 392 136 392 136 472 c 1,37,38
 154 654 154 654 230 756 c 1,39,-1
 419 737 l 1,40,-1
 513 737 l 2,41,42
 608 737 608 737 626 793 c 1,43,-1
 626 812 l 1,44,45
 616 869 616 869 475 869 c 2,46,-1
 230 869 l 1,47,48
 154 895 154 895 154 1039 c 2,49,-1
 154 1077 l 2,50,51
 154 1268 154 1268 419 1322 c 1,52,-1
 475 1322 l 2,53,54
 692 1322 692 1322 702 1077 c 1,55,-1
 778 1077 l 2,56,57
 815 1077 815 1077 815 1114 c 2,58,-1
 815 1435 l 1,59,-1
 787 1464 l 1,60,61
 813 1464 813 1464 825 1577 c 1,62,-1
 787 1634 l 1,0,-1
EndSplineSet
Validated: 9
EndChar

StartChar: quotesingle
Encoding: 39 39 10
Width: 272
GlyphClass: 1
Flags: W
LayerCount: 2
Fore
SplineSet
69 1451 m 1,1,2
 88 1451 88 1451 88 1432 c 0,3,4
 88 1394 88 1394 50 1394 c 1,5,6
 50 1368 50 1368 88 1224 c 1,7,-1
 144 1224 l 2,8,9
 182 1224 182 1224 182 1262 c 2,10,-1
 182 1583 l 1,11,12
 154 1639 154 1639 126 1639 c 0,13,0
 88 1639 88 1639 69 1451 c 1,1,2
EndSplineSet
Validated: 9
EndChar

StartChar: parenleft
Encoding: 40 40 11
Width: 726
GlyphClass: 1
Flags: W
LayerCount: 2
Fore
SplineSet
519 1646 m 1,0,-1
 406 1533 l 1,1,2
 66 1119 66 1119 66 645 c 1,3,4
 234 22 234 22 349 22 c 2,5,-1
 406 22 l 1,6,7
 406 41 406 41 425 79 c 1,8,9
 198 425 198 425 198 740 c 0,10,11
 198 1054 198 1054 481 1457 c 1,12,13
 651 1578 651 1578 651 1608 c 0,14,15
 651 1642 651 1642 557 1646 c 1,16,-1
 519 1646 l 1,0,-1
EndSplineSet
Validated: 9
EndChar

StartChar: parenright
Encoding: 41 41 12
Width: 612
GlyphClass: 1
Flags: W
LayerCount: 2
Fore
SplineSet
150 1646 m 1,0,-1
 93 1608 l 1,1,2
 93 1570 93 1570 225 1363 c 1,3,4
 433 1174 433 1174 433 758 c 1,5,6
 338 431 338 431 282 343 c 1,7,8
 86 74 86 74 74 22 c 1,9,-1
 74 3 l 2,10,11
 74 -35 74 -35 112 -35 c 2,12,-1
 150 -35 l 1,13,14
 546 442 546 442 546 758 c 2,15,-1
 546 872 l 2,16,17
 546 1070 546 1070 471 1268 c 1,18,19
 471 1322 471 1322 301 1532 c 1,20,21
 225 1556 225 1556 168 1646 c 1,22,-1
 150 1646 l 1,0,-1
EndSplineSet
Validated: 9
EndChar

StartChar: asterisk
Encoding: 42 42 13
Width: 1197
GlyphClass: 1
Flags: W
LayerCount: 2
Fore
SplineSet
563 1093 m 2,0,1
 531 1093 531 1093 525 1055 c 1,2,-1
 525 848 l 1,3,-1
 550 692 l 1,4,-1
 531 692 l 1,5,-1
 261 923 l 1,6,-1
 223 923 l 1,7,8
 223 903 223 903 204 866 c 1,9,10
 210 812 210 812 437 617 c 1,11,-1
 437 598 l 1,12,13
 193 598 193 598 59 485 c 1,14,-1
 78 447 l 1,15,16
 100 447 100 447 380 485 c 1,17,-1
 418 485 l 1,18,19
 210 262 210 262 210 239 c 2,20,-1
 210 220 l 2,21,22
 210 183 210 183 248 183 c 2,23,-1
 267 183 l 1,24,-1
 342 239 l 1,25,26
 465 419 465 419 512 428 c 1,27,-1
 531 428 l 1,28,-1
 531 315 l 1,29,-1
 550 277 l 1,30,31
 527 277 527 277 512 201 c 1,32,33
 512 164 512 164 550 164 c 2,34,-1
 588 164 l 2,35,36
 642 164 642 164 663 315 c 1,37,-1
 644 409 l 1,38,-1
 644 428 l 1,39,-1
 682 428 l 1,40,41
 752 302 752 302 909 201 c 1,42,-1
 965 239 l 1,43,44
 965 285 965 285 758 504 c 1,45,-1
 758 522 l 1,46,-1
 852 541 l 1,47,-1
 1060 541 l 1,48,49
 1116 570 1116 570 1116 598 c 0,50,51
 1116 627 1116 627 1041 655 c 1,52,53
 792 636 792 636 777 636 c 2,54,-1
 758 636 l 1,55,56
 893 835 893 835 940 961 c 1,57,-1
 940 980 l 1,58,-1
 884 980 l 1,59,60
 695 797 695 797 695 753 c 1,61,-1
 676 753 l 2,62,63
 644 753 644 753 638 791 c 1,64,-1
 638 885 l 2,65,66
 638 1093 638 1093 582 1093 c 2,67,-1
 563 1093 l 2,0,1
EndSplineSet
Validated: 9
EndChar

StartChar: plus
Encoding: 43 43 14
Width: 1216
GlyphClass: 1
Flags: W
LayerCount: 2
Fore
SplineSet
566 1019 m 1,1,2
 566 1002 566 1002 585 962 c 1,3,-1
 566 849 l 1,4,-1
 566 811 l 1,5,-1
 585 773 l 1,6,7
 567 679 567 679 471 679 c 2,8,-1
 377 679 l 2,9,10
 56 679 56 679 56 603 c 1,11,-1
 75 565 l 1,12,13
 167 565 167 565 528 584 c 1,14,-1
 566 565 l 1,15,16
 547 316 547 316 547 301 c 0,17,18
 547 131 547 131 604 131 c 2,19,-1
 641 131 l 2,20,21
 679 131 679 131 679 169 c 2,22,-1
 679 395 l 2,23,24
 679 565 679 565 792 565 c 2,25,-1
 925 565 l 1,26,-1
 962 584 l 1,27,28
 962 565 962 565 981 565 c 2,29,-1
 1095 565 l 2,30,31
 1132 565 1132 565 1132 603 c 2,32,-1
 1132 641 l 2,33,34
 1132 685 1132 685 887 698 c 1,35,-1
 698 679 l 1,36,37
 698 719 698 719 717 754 c 1,38,39
 693 1019 693 1019 660 1094 c 1,40,0
 586 1094 586 1094 566 1019 c 1,1,2
EndSplineSet
Validated: 9
EndChar

StartChar: comma
Encoding: 44 44 15
Width: 385
GlyphClass: 1
Flags: W
LayerCount: 2
Fore
SplineSet
211 321 m 1,0,1
 156 285 156 285 60 0 c 1,2,-1
 79 -37 l 1,3,-1
 98 -37 l 2,4,5
 138 -37 138 -37 305 265 c 1,6,-1
 305 321 l 1,7,-1
 211 321 l 1,0,1
EndSplineSet
Validated: 9
EndChar

StartChar: hyphen
Encoding: 45 45 16
Width: 1141
GlyphClass: 1
Flags: W
LayerCount: 2
Fore
SplineSet
90 603 m 2,1,-1
 90 565 l 1,2,-1
 184 546 l 1,3,-1
 468 546 l 1,4,-1
 600 527 l 1,5,6
 600 546 600 546 619 546 c 1,7,-1
 619 527 l 1,8,9
 661 527 661 527 770 546 c 1,10,-1
 1034 527 l 1,11,12
 1091 557 1091 557 1091 584 c 1,13,14
 1082 625 1082 625 996 660 c 1,15,16
 825 660 825 660 581 641 c 1,17,18
 334 660 334 660 147 660 c 1,19,0
 90 630 90 630 90 603 c 2,1,-1
EndSplineSet
Validated: 9
EndChar

StartChar: period
Encoding: 46 46 17
Width: 423
GlyphClass: 1
Flags: W
LayerCount: 2
Fore
SplineSet
80 132 m 0,1,2
 80 0 80 0 212 0 c 2,3,-1
 231 0 l 2,4,5
 325 0 325 0 363 94 c 1,6,-1
 363 151 l 2,7,8
 363 208 363 208 174 226 c 1,9,0
 80 226 80 226 80 132 c 0,1,2
EndSplineSet
Validated: 9
EndChar

StartChar: slash
Encoding: 47 47 18
Width: 1103
GlyphClass: 1
Flags: W
LayerCount: 2
Fore
SplineSet
955 1632 m 1,0,-1
 880 1557 l 1,1,2
 149 250 149 250 15 57 c 1,3,-1
 15 0 l 1,4,-1
 109 0 l 1,5,6
 500 652 500 652 600 850 c 1,7,8
 979 1540 979 1540 1031 1576 c 1,9,-1
 1031 1632 l 1,10,-1
 955 1632 l 1,0,-1
EndSplineSet
Validated: 9
EndChar

StartChar: zero
Encoding: 48 48 19
Width: 1065
GlyphClass: 1
Flags: W
LayerCount: 2
Fore
SplineSet
458 1638 m 1,0,1
 55 1232 55 1232 61 1080 c 1,2,-1
 54 736 l 1,3,-1
 92 736 l 1,4,5
 92 652 92 652 54 585 c 1,6,7
 54 234 54 234 413 0 c 1,8,9
 639 0 639 0 639 38 c 1,10,11
 904 38 904 38 979 491 c 1,12,-1
 979 831 l 1,13,14
 1006 1638 1006 1638 552 1638 c 2,15,-1
 458 1638 l 1,0,1
212 1072 m 1,16,17
 212 1349 212 1349 533 1544 c 1,18,19
 533 1514 533 1514 684 1487 c 1,20,21
 813 1487 813 1487 873 1223 c 1,22,23
 848 969 848 969 866 604 c 1,24,25
 866 113 866 113 507 113 c 0,26,27
 467 113 467 113 432 132 c 1,28,29
 209 328 209 328 186 491 c 1,30,31
 186 632 186 632 205 755 c 1,32,-1
 212 1072 l 1,16,17
EndSplineSet
Validated: 41
EndChar

StartChar: one
Encoding: 49 49 20
Width: 669
GlyphClass: 1
Flags: W
LayerCount: 2
Fore
SplineSet
510 1650 m 1,0,1
 189 1291 189 1291 114 1291 c 1,2,3
 114 1250 114 1250 133 1215 c 1,4,-1
 133 1197 l 1,5,6
 112 1197 112 1197 76 1215 c 1,7,-1
 57 1215 l 1,8,-1
 57 1159 l 1,9,10
 79 1159 79 1159 114 1140 c 1,11,12
 183 1140 183 1140 265 1234 c 1,13,14
 391 1392 391 1392 454 1404 c 1,15,-1
 454 1348 l 1,16,17
 472 1315 472 1315 472 1272 c 1,18,-1
 454 1178 l 1,19,20
 472 1178 472 1178 472 1159 c 0,21,22
 439 873 439 873 439 320 c 2,23,-1
 439 37 l 2,24,25
 439 -1 439 -1 476 -1 c 2,26,-1
 495 -1 l 2,27,28
 542 -1 542 -1 552 188 c 0,29,30
 552 231 552 231 533 263 c 1,31,-1
 552 301 l 1,32,33
 549 781 549 781 586 1442 c 1,34,35
 568 1650 568 1650 529 1650 c 2,36,-1
 510 1650 l 1,0,1
EndSplineSet
Validated: 41
EndChar

StartChar: two
Encoding: 50 50 21
Width: 1310
GlyphClass: 1
Flags: W
LayerCount: 2
Fore
SplineSet
626 1643 m 1,0,1
 192 1482 192 1482 192 1171 c 2,2,-1
 192 1095 l 1,3,-1
 249 1095 l 1,4,5
 421 1568 421 1568 759 1568 c 1,6,7
 915 1480 915 1480 985 1398 c 1,8,9
 985 1322 985 1322 966 1322 c 1,10,11
 966 884 966 884 400 297 c 1,12,13
 60 74 60 74 60 51 c 1,14,-1
 98 -5 l 1,15,-1
 400 32 l 1,16,-1
 494 13 l 1,17,18
 494 32 494 32 513 32 c 2,19,-1
 853 -5 l 1,20,21
 927 13 927 13 1004 13 c 2,22,-1
 1193 13 l 2,23,24
 1231 13 1231 13 1231 51 c 2,25,-1
 1231 108 l 1,26,-1
 1099 127 l 1,27,-1
 929 127 l 2,28,29
 788 127 788 127 419 146 c 1,30,31
 419 174 419 174 626 391 c 1,32,33
 1117 964 1117 964 1117 1322 c 2,34,-1
 1117 1379 l 1,35,36
 985 1643 985 1643 778 1643 c 2,37,-1
 626 1643 l 1,0,1
EndSplineSet
Validated: 9
EndChar

StartChar: three
Encoding: 51 51 22
Width: 1254
GlyphClass: 1
Flags: W
LayerCount: 2
Fore
SplineSet
173 1190 m 1,1,-1
 211 1171 l 1,2,-1
 230 1171 l 1,3,4
 418 1530 418 1530 702 1530 c 2,5,-1
 740 1530 l 2,6,7
 856 1530 856 1530 947 1398 c 1,8,-1
 947 1284 l 2,9,10
 947 1213 947 1213 853 1077 c 1,11,12
 834 1077 834 1077 796 1095 c 1,13,-1
 778 1095 l 1,14,15
 778 1077 778 1077 796 1077 c 1,16,17
 796 1039 796 1039 759 1039 c 2,18,-1
 551 1039 l 1,19,20
 494 1009 494 1009 494 982 c 2,21,-1
 494 963 l 2,22,23
 494 926 494 926 532 926 c 2,24,-1
 683 926 l 1,25,-1
 872 944 l 1,26,27
 1060 643 1060 643 1060 467 c 2,28,-1
 1060 429 l 2,29,30
 1060 410 1060 410 1041 410 c 1,31,32
 1041 221 1041 221 625 89 c 1,33,34
 420 89 420 89 135 410 c 1,35,-1
 116 410 l 1,36,37
 59 380 59 380 59 353 c 2,38,-1
 59 334 l 1,39,40
 294 -6 294 -6 607 -6 c 2,41,-1
 663 -6 l 1,42,43
 1173 173 1173 173 1173 448 c 0,44,45
 1175 830 1175 830 947 1020 c 1,46,47
 1080 1137 1080 1137 1080 1341 c 0,48,49
 1080 1543 1080 1543 740 1643 c 1,50,0
 173 1526 173 1526 173 1190 c 1,1,-1
EndSplineSet
Validated: 41
EndChar

StartChar: four
Encoding: 52 52 23
Width: 1273
GlyphClass: 1
Flags: W
LayerCount: 2
Fore
SplineSet
759 1700 m 2,0,1
 715 1700 715 1700 683 1681 c 1,2,3
 621 1512 621 1512 551 1454 c 1,4,5
 394 1111 394 1111 60 642 c 1,6,-1
 60 623 l 2,7,8
 60 586 60 586 98 586 c 2,9,-1
 249 586 l 2,10,11
 445 586 445 586 778 623 c 1,12,-1
 815 605 l 1,13,14
 802 101 802 101 802 74 c 0,15,16
 813 -2 813 -2 859 -2 c 1,17,-1
 916 36 l 1,18,19
 910 268 910 268 929 623 c 1,20,21
 1193 653 1193 653 1193 699 c 2,22,-1
 1193 718 l 1,23,-1
 1155 774 l 1,24,-1
 1023 756 l 1,25,-1
 947 756 l 1,26,-1
 966 831 l 1,27,28
 966 1267 966 1267 1004 1568 c 1,29,30
 967 1643 967 1643 947 1643 c 2,31,-1
 891 1643 l 2,32,33
 859 1643 859 1643 853 1605 c 1,34,-1
 853 1511 l 1,35,-1
 834 1322 l 1,36,-1
 872 1303 l 1,37,38
 853 1105 853 1105 853 1020 c 2,39,-1
 853 831 l 2,40,41
 853 788 853 788 834 756 c 1,42,43
 788 727 788 727 419 680 c 1,44,-1
 230 699 l 1,45,-1
 230 737 l 1,46,47
 393 927 393 927 702 1492 c 1,48,49
 815 1621 815 1621 815 1681 c 2,50,-1
 815 1700 l 1,51,-1
 759 1700 l 2,0,1
EndSplineSet
Validated: 41
EndChar

StartChar: five
Encoding: 53 53 24
Width: 1159
GlyphClass: 1
Flags: W
LayerCount: 2
Fore
SplineSet
138 1626 m 1,1,2
 156 1314 156 1314 156 1154 c 1,3,-1
 138 1059 l 1,4,5
 156 1059 156 1059 156 1040 c 1,6,7
 138 1007 138 1007 138 965 c 1,8,-1
 213 965 l 1,9,10
 327 1097 327 1097 364 1097 c 1,11,12
 571 1074 571 1074 607 1074 c 1,13,14
 876 920 876 920 946 564 c 1,15,16
 927 526 927 526 927 508 c 1,17,-1
 946 470 l 1,18,19
 916 410 916 410 889 300 c 1,20,21
 760 130 760 130 625 130 c 2,22,-1
 511 130 l 2,23,24
 358 130 358 130 153 338 c 1,25,-1
 134 338 l 1,26,-1
 77 300 l 1,27,28
 77 136 77 136 455 17 c 1,29,-1
 511 17 l 2,30,31
 1059 17 1059 17 1059 564 c 2,32,-1
 1059 583 l 1,33,34
 1044 918 1044 918 855 1059 c 1,35,36
 855 1191 855 1191 383 1191 c 1,37,-1
 289 1172 l 1,38,39
 289 1191 289 1191 270 1191 c 1,40,-1
 270 1380 l 2,41,42
 270 1437 270 1437 232 1531 c 1,43,44
 251 1531 251 1531 251 1550 c 1,45,46
 294 1550 294 1550 326 1531 c 1,47,48
 367 1531 367 1531 402 1550 c 1,49,50
 538 1531 538 1531 610 1531 c 2,51,-1
 723 1531 l 2,52,53
 818 1531 818 1531 836 1475 c 1,54,55
 1016 1550 1016 1550 1082 1550 c 1,56,-1
 1082 1607 l 1,57,-1
 1044 1663 l 1,58,-1
 685 1626 l 1,59,-1
 421 1663 l 1,60,61
 351 1644 351 1644 345 1644 c 0,62,63
 337 1644 337 1644 232 1663 c 1,64,0
 199 1663 199 1663 138 1626 c 1,1,2
EndSplineSet
Validated: 9
EndChar

StartChar: six
Encoding: 54 54 25
Width: 1329
GlyphClass: 1
Flags: W
LayerCount: 2
Fore
SplineSet
509 1571 m 1,1,2
 38 1134 38 1134 72 886 c 1,3,-1
 59 511 l 1,4,5
 79 384 79 384 116 379 c 1,6,7
 285 2 285 2 758 2 c 1,8,9
 1192 116 1192 116 1192 493 c 0,10,11
 1192 621 1192 621 1098 700 c 1,12,13
 1098 814 1098 814 682 832 c 1,14,-1
 607 832 l 1,15,16
 607 854 607 854 588 889 c 1,17,-1
 550 889 l 1,18,19
 210 653 210 653 210 493 c 1,20,-1
 172 493 l 1,21,22
 172 511 172 511 191 511 c 1,23,-1
 172 606 l 1,24,-1
 191 795 l 1,25,26
 191 1049 191 1049 361 1303 c 1,27,28
 553 1511 553 1511 871 1511 c 2,29,-1
 928 1511 l 2,30,31
 1003 1511 1003 1511 1116 1398 c 1,32,-1
 1173 1322 l 1,33,-1
 1211 1322 l 2,34,35
 1249 1322 1249 1322 1249 1360 c 2,36,-1
 1249 1379 l 1,37,38
 1173 1485 1173 1485 1173 1530 c 1,39,40
 1054 1624 1054 1624 625 1624 c 1,41,0
 568 1608 568 1608 509 1571 c 1,1,2
304 474 m 1,43,44
 446 719 446 719 663 719 c 2,45,-1
 720 719 l 1,46,47
 1060 701 1060 701 1060 493 c 2,48,-1
 1060 436 l 2,49,50
 1060 210 1060 210 739 115 c 1,51,52
 286 178 286 178 286 323 c 0,53,42
 286 371 286 371 304 474 c 1,43,44
EndSplineSet
Validated: 41
EndChar

StartChar: seven
Encoding: 55 55 26
Width: 1424
GlyphClass: 1
Flags: W
LayerCount: 2
Fore
SplineSet
1231 1662 m 1,0,-1
 1155 1605 l 1,1,-1
 985 1605 l 1,2,-1
 947 1586 l 1,3,4
 947 1605 947 1605 929 1605 c 2,5,-1
 400 1605 l 1,6,7
 109 1629 109 1629 109 1572 c 2,8,-1
 109 1553 l 2,9,10
 109 1516 109 1516 260 1496 c 1,11,12
 332 1492 332 1492 381 1492 c 2,13,-1
 985 1492 l 1,14,-1
 1080 1473 l 1,15,-1
 1080 1416 l 1,16,17
 1010 1269 1010 1269 759 926 c 1,18,-1
 297 85 l 1,19,-1
 297 10 l 1,20,-1
 354 10 l 2,21,22
 411 10 411 10 618 444 c 1,23,24
 1124 1328 1124 1328 1344 1549 c 1,25,26
 1344 1625 1344 1625 1268 1662 c 1,27,-1
 1231 1662 l 1,0,-1
EndSplineSet
Validated: 41
EndChar

StartChar: eight
Encoding: 56 56 27
Width: 1519
GlyphClass: 1
Flags: W
LayerCount: 2
Fore
SplineSet
514 1629 m 1,1,2
 307 1548 307 1548 211 1247 c 1,3,4
 211 1092 211 1092 324 944 c 1,5,6
 104 662 104 662 60 491 c 1,7,8
 254 12 254 12 673 12 c 2,9,-1
 824 12 l 2,10,11
 899 12 899 12 975 31 c 1,12,13
 1438 185 1438 185 1438 548 c 2,14,-1
 1438 567 l 1,15,16
 1294 982 1294 982 1117 982 c 1,17,-1
 1117 1001 l 1,18,19
 1250 1207 1250 1207 1250 1284 c 2,20,-1
 1250 1322 l 1,21,22
 1232 1328 1232 1328 1156 1440 c 1,23,24
 1074 1667 1074 1667 778 1667 c 0,25,0
 743 1667 743 1667 514 1629 c 1,1,2
324 1190 m 1,26,27
 306 1469 306 1469 892 1553 c 1,28,29
 984 1532 984 1532 1081 1327 c 1,30,31
 1099 1053 1099 1053 853 963 c 1,32,-1
 815 963 l 2,33,34
 572 963 572 963 475 1001 c 1,35,36
 408 1001 408 1001 324 1171 c 1,37,-1
 324 1190 l 1,26,27
1306 567 m 1,39,-1
 1306 453 l 1,40,41
 1315 427 1315 427 1277 427 c 1,42,43
 1277 279 1277 279 975 200 c 1,44,-1
 749 200 l 1,45,46
 394 133 394 133 268 453 c 1,47,-1
 268 510 l 2,48,49
 268 809 268 809 475 869 c 1,50,51
 529 869 529 869 589 831 c 1,52,53
 701 831 701 831 910 850 c 1,54,55
 948 831 948 831 966 831 c 1,56,57
 985 868 985 868 985 888 c 1,58,38
 1221 888 1221 888 1306 567 c 1,39,-1
EndSplineSet
Validated: 41
EndChar

StartChar: nine
Encoding: 57 57 28
Width: 1122
GlyphClass: 1
Flags: W
LayerCount: 2
Fore
SplineSet
438 1599 m 1,1,2
 166 1670 166 1670 118 1121 c 1,3,-1
 118 1064 l 2,4,5
 118 1045 118 1045 137 1045 c 1,6,7
 245 762 245 762 552 762 c 2,8,-1
 628 762 l 2,9,10
 709 762 709 762 779 800 c 1,11,12
 817 800 817 800 817 762 c 1,13,14
 534 120 534 120 496 120 c 1,15,16
 496 80 496 80 515 45 c 1,17,-1
 496 7 l 1,18,-1
 496 -12 l 1,19,-1
 552 -12 l 1,20,21
 611 29 611 29 892 611 c 1,22,23
 1062 1007 1062 1007 1100 1215 c 1,24,25
 1100 1193 1100 1193 1061 1391 c 1,26,27
 1061 1618 1061 1618 646 1655 c 1,28,0
 438 1628 438 1628 438 1599 c 1,1,2
250 1272 m 1,30,31
 250 1458 250 1458 551 1542 c 1,32,33
 644 1542 644 1542 740 1523 c 1,34,35
 892 1593 892 1593 949 1385 c 1,36,37
 949 1140 949 1140 911 1140 c 1,38,39
 911 876 911 876 647 876 c 2,40,-1
 533 876 l 2,41,42
 270 876 270 876 231 1253 c 0,43,29
 231 1272 231 1272 250 1272 c 1,30,31
EndSplineSet
Validated: 37
EndChar

StartChar: colon
Encoding: 58 58 29
Width: 442
GlyphClass: 1
Flags: W
LayerCount: 2
Fore
SplineSet
100 1020 m 1,1,2
 100 944 100 944 213 944 c 2,3,-1
 289 944 l 1,4,-1
 364 1001 l 1,5,6
 364 1171 364 1171 194 1171 c 0,7,0
 130 1171 130 1171 100 1020 c 1,1,2
165 231 m 1,8,-1
 71 156 l 1,9,10
 71 4 71 4 203 4 c 2,11,-1
 241 4 l 1,12,13
 354 71 354 71 354 99 c 2,14,-1
 354 156 l 1,15,16
 309 231 309 231 279 231 c 2,17,-1
 165 231 l 1,8,-1
EndSplineSet
Validated: 9
EndChar

StartChar: semicolon
Encoding: 59 59 30
Width: 480
GlyphClass: 1
Flags: W
LayerCount: 2
Fore
SplineSet
60 1039 m 1,1,-1
 60 1020 l 2,2,3
 60 955 60 955 136 888 c 1,4,5
 288 888 288 888 324 1095 c 1,6,7
 324 1128 324 1128 211 1152 c 1,8,0
 140 1152 140 1152 60 1039 c 1,1,-1
297 384 m 1,9,-1
 260 366 l 1,10,11
 71 48 71 48 71 7 c 2,12,-1
 71 -12 l 1,13,-1
 146 -12 l 1,14,15
 199 13 199 13 373 328 c 1,16,17
 354 366 354 366 354 384 c 1,18,-1
 297 384 l 1,9,-1
EndSplineSet
Validated: 9
EndChar

StartChar: less
Encoding: 60 60 31
Width: 971
GlyphClass: 1
Flags: W
LayerCount: 2
Fore
SplineSet
794 1093 m 1,0,1
 214 660 214 660 58 470 c 1,2,-1
 58 451 l 1,3,4
 478 154 478 154 851 73 c 1,5,-1
 889 73 l 1,6,-1
 889 149 l 1,7,-1
 870 186 l 1,8,9
 850 186 850 186 228 470 c 1,10,-1
 228 489 l 1,11,-1
 285 564 l 1,12,13
 674 836 674 836 889 1036 c 1,14,15
 859 1093 859 1093 832 1093 c 2,16,-1
 794 1093 l 1,0,1
EndSplineSet
Validated: 9
EndChar

StartChar: equal
Encoding: 61 61 32
Width: 1179
GlyphClass: 1
Flags: W
LayerCount: 2
Fore
SplineSet
344 792 m 2,1,-1
 174 792 l 1,2,3
 61 741 61 741 61 716 c 2,4,-1
 61 678 l 1,5,6
 83 678 83 678 118 659 c 1,7,8
 237 659 237 659 930 735 c 1,9,10
 930 716 930 716 967 716 c 1,11,-1
 1100 754 l 1,12,-1
 1100 792 l 2,13,14
 1100 830 1100 830 911 848 c 1,15,0
 793 792 793 792 344 792 c 2,1,-1
495 471 m 2,16,17
 99 471 99 471 99 414 c 0,18,19
 99 383 99 383 212 357 c 1,20,21
 338 376 338 376 420 376 c 2,22,-1
 514 376 l 1,23,-1
 703 357 l 1,24,25
 703 376 703 376 722 376 c 0,26,27
 830 357 830 357 892 357 c 2,28,-1
 967 357 l 2,29,30
 1063 357 1063 357 1081 414 c 1,31,-1
 1081 433 l 2,32,33
 1081 465 1081 465 1043 471 c 1,34,-1
 495 471 l 2,16,17
EndSplineSet
Validated: 9
EndChar

StartChar: greater
Encoding: 62 62 33
Width: 1046
GlyphClass: 1
Flags: W
LayerCount: 2
Fore
SplineSet
161 1075 m 2,0,1
 129 1075 129 1075 123 1037 c 1,2,3
 125 1011 125 1011 349 848 c 1,4,5
 803 668 803 668 803 622 c 1,6,7
 315 366 315 366 85 188 c 1,8,-1
 85 169 l 2,9,10
 85 131 85 131 123 131 c 0,11,12
 193 131 193 131 576 376 c 1,13,14
 875 514 875 514 991 622 c 1,15,-1
 991 678 l 1,16,-1
 972 716 l 1,17,18
 803 758 803 758 803 792 c 1,19,20
 474 896 474 896 236 1075 c 1,21,-1
 161 1075 l 2,0,1
EndSplineSet
Validated: 9
EndChar

StartChar: question
Encoding: 63 63 34
Width: 1103
GlyphClass: 1
Flags: W
LayerCount: 2
Fore
SplineSet
557 1635 m 2,0,1
 66 1635 66 1635 66 1106 c 1,2,-1
 85 1106 l 1,3,-1
 123 1125 l 1,4,-1
 104 1087 l 1,5,-1
 104 1068 l 1,6,-1
 142 1068 l 1,7,-1
 179 1201 l 1,8,9
 179 1502 179 1502 576 1559 c 1,10,11
 789 1511 789 1511 897 1370 c 1,12,-1
 897 1352 l 1,13,-1
 878 1257 l 1,14,15
 897 1257 897 1257 897 1238 c 1,16,17
 836 1114 836 1114 784 1049 c 1,18,19
 368 737 368 737 368 691 c 2,20,-1
 368 634 l 1,21,22
 390 634 390 634 425 615 c 1,23,24
 595 785 595 785 632 785 c 1,25,26
 946 972 946 972 1029 1276 c 1,27,28
 1029 1535 1029 1535 614 1635 c 1,29,-1
 557 1635 l 2,0,1
378 215 m 1,30,31
 339 208 339 208 302 121 c 1,32,33
 322 8 322 8 359 8 c 2,34,-1
 397 8 l 2,35,36
 428 8 428 8 491 140 c 1,37,-1
 472 215 l 1,38,-1
 378 215 l 1,30,31
EndSplineSet
Validated: 9
EndChar

StartChar: at
Encoding: 64 64 35
Width: 1727
GlyphClass: 1
Flags: W
LayerCount: 2
Fore
SplineSet
946 1390 m 2,0,1
 875 1390 875 1390 776 1371 c 1,2,3
 77 1079 77 1079 77 616 c 2,4,-1
 77 503 l 1,5,6
 287 -12 287 -12 634 -12 c 2,7,-1
 841 -12 l 2,8,9
 1237 -12 1237 -12 1370 177 c 1,10,11
 1370 210 1370 210 1332 214 c 1,12,-1
 1257 214 l 1,13,14
 1257 148 1257 148 785 82 c 1,15,16
 608 102 608 102 464 158 c 1,17,18
 190 417 190 417 190 597 c 2,19,-1
 190 654 l 2,20,21
 190 762 190 762 266 862 c 0,22,23
 618 1296 618 1296 946 1296 c 2,24,-1
 1021 1296 l 2,25,26
 1261 1296 1261 1296 1550 899 c 1,27,28
 1550 878 1550 878 1531 843 c 1,29,30
 1531 826 1531 826 1550 786 c 1,31,32
 1512 578 1512 578 1493 578 c 1,33,34
 1481 475 1481 475 1342 427 c 1,35,-1
 1248 427 l 1,36,37
 1177 471 1177 471 1116 578 c 1,38,-1
 1116 673 l 2,39,40
 1116 693 1116 693 1153 880 c 1,41,-1
 1153 918 l 1,42,43
 1021 1069 1021 1069 927 1069 c 2,44,-1
 908 1069 l 2,45,46
 603 1069 603 1069 474 654 c 1,47,48
 507 390 507 390 681 390 c 1,49,50
 964 438 964 438 964 541 c 1,51,-1
 1021 541 l 1,52,53
 1075 290 1075 290 1370 290 c 1,54,55
 1663 407 1663 407 1663 899 c 1,56,57
 1625 899 1625 899 1625 994 c 1,58,59
 1303 1390 1303 1390 1116 1390 c 2,60,-1
 946 1390 l 2,0,1
870 956 m 2,62,-1
 889 956 l 2,63,64
 1021 956 1021 956 1021 824 c 1,65,66
 904 503 904 503 681 503 c 0,67,68
 601 503 601 503 568 692 c 1,69,61
 709 956 709 956 870 956 c 2,62,-1
EndSplineSet
Validated: 9
EndChar

StartChar: A
Encoding: 65 65 36
Width: 1292
GlyphClass: 1
Flags: W
LayerCount: 2
Fore
SplineSet
721 1643 m 2,0,1
 575 1643 575 1643 419 1511 c 1,2,3
 253 1511 253 1511 79 907 c 1,4,5
 79 866 79 866 98 831 c 1,6,7
 69 413 69 413 69 113 c 1,8,-1
 88 18 l 1,9,10
 69 18 69 18 69 -1 c 1,11,-1
 88 -1 l 1,12,-1
 182 18 l 1,13,-1
 182 150 l 1,14,-1
 201 283 l 1,15,16
 182 283 182 283 182 301 c 1,17,18
 201 301 201 301 201 320 c 2,19,-1
 192 831 l 1,20,-1
 721 907 l 1,21,22
 1028 869 1028 869 1042 869 c 2,23,-1
 1061 869 l 1,24,25
 1061 849 1061 849 1042 812 c 1,26,27
 1053 477 1053 477 1053 258 c 2,28,-1
 1053 163 l 2,29,30
 1053 107 1053 107 977 107 c 1,31,-1
 977 69 l 1,32,33
 992 12 992 12 1090 12 c 2,34,-1
 1128 12 l 2,35,36
 1166 12 1166 12 1166 50 c 2,37,-1
 1193 831 l 1,38,-1
 1212 963 l 1,39,40
 1194 963 1194 963 1174 1020 c 1,41,-1
 1193 1020 l 1,42,43
 1175 1303 1175 1303 1136 1303 c 1,44,45
 1136 1573 1136 1573 759 1643 c 1,46,-1
 721 1643 l 2,0,1
249 1077 m 1,48,49
 507 1530 507 1530 702 1530 c 2,50,-1
 721 1530 l 1,51,52
 1042 1455 1042 1455 1042 1058 c 2,53,-1
 1042 982 l 1,54,55
 830 1020 830 1020 778 1020 c 0,56,57
 534 1002 534 1002 230 963 c 1,58,47
 230 973 230 973 249 1077 c 1,48,49
EndSplineSet
Validated: 9
EndChar

StartChar: B
Encoding: 66 66 37
Width: 1141
GlyphClass: 1
Flags: W
LayerCount: 2
Fore
SplineSet
98 1568 m 1,1,2
 98 1437 98 1437 117 1416 c 1,3,4
 107 1161 107 1161 107 1082 c 2,5,-1
 98 284 l 2,6,7
 98 186 98 186 60 57 c 1,8,-1
 136 19 l 1,9,10
 173 19 173 19 173 57 c 1,11,12
 373 38 373 38 457 38 c 2,13,-1
 475 38 l 2,14,15
 608 38 608 38 608 57 c 1,16,17
 914 57 914 57 1061 453 c 1,18,19
 1061 497 1061 497 1042 529 c 1,20,21
 1061 561 1061 561 1061 605 c 2,22,-1
 1061 642 l 1,23,24
 1070 791 1070 791 749 912 c 1,25,26
 910 1125 910 1125 910 1284 c 0,27,28
 910 1460 910 1460 834 1511 c 1,29,30
 834 1649 834 1649 419 1662 c 1,31,0
 142 1605 142 1605 98 1568 c 1,1,2
211 1473 m 2,32,33
 211 1507 211 1507 457 1549 c 1,34,35
 457 1530 457 1530 532 1530 c 0,36,37
 778 1530 778 1530 778 1247 c 1,38,39
 725 931 725 931 352 931 c 1,40,41
 352 957 352 957 220 969 c 1,42,-1
 220 1063 l 1,43,-1
 192 1247 l 1,44,45
 211 1278 211 1278 211 1341 c 2,46,-1
 211 1473 l 2,32,33
220 837 m 1,47,-1
 277 837 l 2,48,49
 358 837 358 837 428 818 c 1,50,-1
 522 837 l 1,51,52
 692 825 692 825 692 799 c 1,53,54
 929 784 929 784 929 529 c 0,55,56
 929 151 929 151 324 151 c 1,57,58
 251 170 251 170 192 170 c 1,59,-1
 211 265 l 1,60,-1
 220 837 l 1,47,-1
EndSplineSet
Validated: 41
EndChar

StartChar: C
Encoding: 67 67 38
Width: 1500
GlyphClass: 1
Flags: W
LayerCount: 2
Fore
SplineSet
661 1638 m 2,0,1
 594 1638 594 1638 454 1544 c 1,2,3
 140 1203 140 1203 59 850 c 1,4,5
 59 398 59 398 286 227 c 1,6,7
 511 0 511 0 795 0 c 0,8,9
 1113 0 1113 0 1381 397 c 1,10,-1
 1381 415 l 2,11,12
 1381 447 1381 447 1343 453 c 1,13,-1
 1305 453 l 1,14,-1
 1173 321 l 1,15,16
 1050 132 1050 132 663 132 c 1,17,18
 191 366 191 366 191 718 c 1,19,-1
 248 982 l 1,20,21
 452 1525 452 1525 793 1525 c 2,22,-1
 926 1525 l 1,23,24
 1061 1516 1061 1516 1247 1355 c 1,25,26
 1309 1166 1309 1166 1341 1166 c 2,27,-1
 1360 1166 l 1,28,-1
 1417 1204 l 1,29,30
 1417 1223 1417 1223 1398 1355 c 1,31,32
 1197 1638 1197 1638 982 1638 c 2,33,-1
 661 1638 l 2,0,1
EndSplineSet
Validated: 9
EndChar

StartChar: D
Encoding: 68 68 39
Width: 1254
GlyphClass: 1
Flags: W
LayerCount: 2
Fore
SplineSet
117 1624 m 1,1,2
 117 1517 117 1517 136 1492 c 1,3,-1
 60 642 l 1,4,-1
 79 453 l 1,5,6
 60 263 60 263 60 95 c 0,7,8
 60 78 60 78 79 38 c 1,9,10
 60 38 60 38 60 19 c 2,11,-1
 60 -37 l 1,12,-1
 154 -56 l 1,13,-1
 154 0 l 1,14,-1
 136 38 l 1,15,16
 144 38 144 38 287 76 c 1,17,-1
 324 57 l 1,18,19
 479 76 479 76 759 170 c 1,20,21
 1067 356 1067 356 1174 680 c 1,22,23
 1174 874 1174 874 1136 1058 c 1,24,25
 929 1643 929 1643 136 1643 c 1,26,0
 136 1624 136 1624 117 1624 c 1,1,2
287 1492 m 1,27,-1
 494 1492 l 1,28,29
 1061 1303 1061 1303 1061 793 c 1,30,31
 1043 614 1043 614 1023 586 c 0,32,33
 783 170 783 170 268 170 c 2,34,-1
 211 170 l 1,35,-1
 173 189 l 1,36,37
 173 288 173 288 192 491 c 0,38,39
 192 528 192 528 173 718 c 1,40,41
 230 1237 230 1237 230 1247 c 1,42,-1
 211 1284 l 1,43,44
 230 1375 230 1375 230 1530 c 1,45,-1
 287 1492 l 1,27,-1
EndSplineSet
Validated: 9
EndChar

StartChar: E
Encoding: 69 69 40
Width: 1122
GlyphClass: 1
Flags: W
LayerCount: 2
Fore
SplineSet
109 1638 m 1,1,-1
 106 1077 l 1,2,3
 118 976 118 976 98 529 c 1,4,-1
 60 510 l 1,5,-1
 79 378 l 1,6,-1
 76 50 l 1,7,8
 88 50 88 50 227 13 c 1,9,10
 549 32 549 32 642 32 c 1,11,-1
 775 13 l 1,12,13
 775 38 775 38 907 50 c 1,14,-1
 907 126 l 1,15,-1
 888 164 l 1,16,17
 869 164 869 164 737 145 c 1,18,-1
 510 164 l 1,19,20
 472 145 472 145 454 145 c 1,21,-1
 416 164 l 1,22,23
 397 164 397 164 265 145 c 1,24,-1
 170 164 l 1,25,26
 219 654 219 654 219 813 c 1,27,-1
 313 831 l 1,28,-1
 540 831 l 2,29,30
 641 831 641 831 653 926 c 1,31,32
 593 964 593 964 540 964 c 0,33,34
 435 964 435 964 219 945 c 1,35,36
 231 1121 231 1121 249 1454 c 1,37,38
 242 1508 242 1508 222 1544 c 1,39,-1
 939 1582 l 1,40,41
 939 1563 939 1563 977 1563 c 1,42,43
 1014 1582 1014 1582 1034 1582 c 1,44,45
 1034 1625 1034 1625 1015 1657 c 1,46,0
 135 1657 135 1657 109 1638 c 1,1,-1
EndSplineSet
Validated: 41
EndChar

StartChar: F
Encoding: 70 70 41
Width: 1273
GlyphClass: 1
Flags: W
LayerCount: 2
Fore
SplineSet
1191 1664 m 1,0,-1
 1059 1645 l 1,1,-1
 908 1645 l 2,2,3
 695 1645 695 1645 455 1608 c 1,4,-1
 134 1645 l 2,5,6
 102 1645 102 1645 96 1608 c 1,7,-1
 96 1494 l 1,8,9
 119 1302 119 1302 99 1203 c 1,10,-1
 117 567 l 1,11,12
 98 567 98 567 98 548 c 0,13,14
 136 257 136 257 136 95 c 1,15,-1
 98 38 l 1,16,17
 107 -1 107 -1 192 -37 c 1,18,19
 213 -37 213 -37 249 -19 c 1,20,21
 211 619 211 619 211 774 c 1,22,-1
 343 774 l 1,23,24
 759 801 759 801 759 869 c 1,25,26
 729 926 729 926 702 926 c 2,27,-1
 494 926 l 1,28,-1
 457 907 l 1,29,30
 457 926 457 926 438 926 c 2,31,-1
 192 926 l 1,32,33
 231 1005 231 1005 212 1165 c 1,34,35
 209 1423 209 1423 209 1532 c 1,36,-1
 304 1513 l 1,37,-1
 417 1513 l 2,38,39
 648 1513 648 1513 927 1532 c 1,40,41
 1032 1513 1032 1513 1116 1513 c 1,42,43
 1203 1550 1203 1550 1210 1589 c 1,44,-1
 1210 1627 l 1,45,-1
 1191 1664 l 1,0,-1
EndSplineSet
Validated: 41
EndChar

StartChar: G
Encoding: 71 71 42
Width: 1631
GlyphClass: 1
Flags: W
LayerCount: 2
Fore
SplineSet
457 1473 m 0,1,2
 124 1232 124 1232 60 926 c 1,3,4
 60 734 60 734 173 397 c 1,5,6
 487 -19 487 -19 740 -19 c 2,7,-1
 985 -19 l 2,8,9
 1122 -19 1122 -19 1231 76 c 1,10,11
 1496 67 1496 67 1571 558 c 1,12,-1
 1571 690 l 2,13,14
 1571 722 1571 722 1534 728 c 1,15,-1
 1496 728 l 1,16,17
 1031 690 1031 690 986 690 c 2,18,-1
 835 690 l 1,19,-1
 835 596 l 1,20,-1
 929 577 l 1,21,22
 985 577 985 577 1420 614 c 0,23,24
 1458 614 1458 614 1458 577 c 2,25,-1
 1458 520 l 1,26,27
 1288 95 1288 95 947 95 c 2,28,-1
 759 95 l 1,29,30
 438 205 438 205 438 302 c 1,31,32
 308 302 308 302 192 774 c 1,33,-1
 192 907 l 1,34,35
 231 1096 231 1096 362 1247 c 1,36,37
 649 1530 649 1530 947 1530 c 0,38,39
 1296 1530 1296 1530 1401 1133 c 1,40,-1
 1420 1133 l 1,41,-1
 1457 1152 l 1,42,-1
 1438 1114 l 1,43,44
 1438 1077 1438 1077 1476 1077 c 2,45,-1
 1495 1077 l 1,46,-1
 1552 1114 l 1,47,48
 1396 1624 1396 1624 1004 1624 c 0,49,0
 665 1624 665 1624 457 1473 c 0,1,2
EndSplineSet
Validated: 41
EndChar

StartChar: H
Encoding: 72 72 43
Width: 1235
GlyphClass: 1
Flags: W
LayerCount: 2
Fore
SplineSet
1133 1621 m 1,0,1
 1133 1546 1133 1546 1095 1546 c 1,2,3
 1095 1527 1095 1527 1114 1489 c 1,4,5
 1114 1340 1114 1340 1095 1225 c 1,6,-1
 1114 1092 l 1,7,-1
 1092 928 l 1,8,9
 340 920 340 920 219 920 c 2,10,-1
 200 920 l 1,11,-1
 180 1641 l 1,12,13
 162 1641 162 1641 162 1660 c 1,14,15
 67 1660 67 1660 67 1547 c 2,16,-1
 67 1415 l 2,17,18
 67 1242 67 1242 29 1094 c 1,19,-1
 45 1118 l 1,20,21
 87 902 87 902 87 731 c 2,22,-1
 90 480 l 1,23,24
 20 198 20 198 14 121 c 1,25,26
 14 -11 14 -11 127 -11 c 1,27,-1
 165 8 l 1,28,29
 165 30 165 30 146 65 c 1,30,31
 146 107 146 107 165 216 c 1,32,33
 146 216 146 216 146 235 c 1,34,35
 184 235 184 235 184 273 c 2,36,-1
 181 769 l 2,37,38
 181 814 181 814 294 826 c 1,39,-1
 408 826 l 1,40,-1
 548 818 l 2,41,42
 612 815 612 815 847 834 c 1,43,44
 921 815 921 815 1016 815 c 2,45,-1
 1035 815 l 1,46,-1
 1073 834 l 1,47,-1
 1092 796 l 1,48,-1
 1092 777 l 2,49,50
 1095 331 1095 331 1057 110 c 1,51,52
 1096 35 1096 35 1114 35 c 2,53,-1
 1152 35 l 1,54,-1
 1189 54 l 1,55,-1
 1171 224 l 2,56,57
 1171 257 1171 257 1208 488 c 1,58,-1
 1186 701 l 1,59,60
 1205 774 1205 774 1205 852 c 2,61,-1
 1205 909 l 1,62,-1
 1186 1004 l 1,63,64
 1227 907 1227 907 1227 1130 c 2,65,-1
 1227 1338 l 2,66,67
 1227 1438 1227 1438 1208 1621 c 1,68,-1
 1133 1621 l 1,0,1
EndSplineSet
Validated: 41
EndChar

StartChar: I
Encoding: 73 73 44
Width: 801
GlyphClass: 1
Flags: W
LayerCount: 2
Fore
SplineSet
154 1624 m 1,0,1
 154 1567 154 1567 136 1492 c 1,2,-1
 211 1454 l 1,3,4
 325 1492 325 1492 362 1492 c 1,5,6
 400 1387 400 1387 400 1077 c 1,7,8
 391 827 391 827 352 274 c 0,9,10
 352 257 352 257 371 217 c 1,11,12
 341 123 341 123 314 123 c 2,13,-1
 201 123 l 2,14,15
 62 123 62 123 50 66 c 1,16,-1
 50 28 l 1,17,18
 107 28 107 28 107 -9 c 1,19,20
 692 5 692 5 692 66 c 2,21,-1
 692 85 l 2,22,23
 692 129 692 129 465 142 c 1,24,25
 465 151 465 151 484 293 c 1,26,27
 484 352 484 352 465 425 c 1,28,29
 495 572 495 572 513 774 c 1,30,31
 494 774 494 774 494 793 c 1,32,33
 508 837 508 837 532 1095 c 1,34,35
 513 1095 513 1095 513 1114 c 2,36,-1
 532 1228 l 1,37,38
 494 1315 494 1315 494 1473 c 2,39,-1
 494 1492 l 1,40,41
 721 1501 721 1501 721 1549 c 2,42,-1
 721 1586 l 1,43,-1
 702 1624 l 1,44,-1
 608 1605 l 1,45,-1
 343 1605 l 1,46,-1
 154 1624 l 1,0,1
EndSplineSet
Validated: 9
EndChar

StartChar: J
Encoding: 74 74 45
Width: 1008
GlyphClass: 1
Flags: W
LayerCount: 2
Fore
SplineSet
778 1643 m 1,0,-1
 778 1530 l 2,1,2
 778 1350 778 1350 796 1095 c 1,3,4
 734 814 734 814 734 588 c 0,5,6
 734 205 734 205 452 121 c 1,7,8
 305 121 305 121 225 234 c 1,9,10
 179 423 179 423 150 423 c 2,11,-1
 131 423 l 1,12,13
 74 393 74 393 74 366 c 0,14,15
 74 7 74 7 471 7 c 1,16,17
 716 82 716 82 716 158 c 1,18,19
 834 302 834 302 929 1114 c 1,20,-1
 891 1416 l 1,21,22
 910 1453 910 1453 910 1473 c 0,23,24
 910 1517 910 1517 853 1643 c 1,25,-1
 778 1643 l 1,0,-1
EndSplineSet
Validated: 9
EndChar

StartChar: K
Encoding: 75 75 46
Width: 1273
GlyphClass: 1
Flags: W
LayerCount: 2
Fore
SplineSet
84 1629 m 1,0,-1
 84 1535 l 1,1,-1
 122 1478 l 1,2,3
 65 1478 65 1478 65 1441 c 2,4,-1
 65 1290 l 2,5,6
 65 1021 65 1021 103 723 c 1,7,-1
 84 629 l 1,8,-1
 103 591 l 1,9,10
 84 495 84 495 65 6 c 1,11,-1
 103 -13 l 1,12,-1
 141 -13 l 2,13,14
 170 -13 170 -13 197 62 c 1,15,-1
 178 100 l 1,16,17
 197 173 197 173 197 440 c 0,18,19
 197 700 197 700 405 818 c 1,20,-1
 443 818 l 1,21,22
 488 799 488 799 764 440 c 1,23,24
 1059 46 1059 46 1104 24 c 1,25,-1
 1141 24 l 2,26,27
 1179 24 1179 24 1179 62 c 2,28,-1
 1179 81 l 1,29,30
 1085 196 1085 196 1085 213 c 1,31,32
 634 827 634 827 499 874 c 1,33,-1
 499 893 l 1,34,-1
 1198 1516 l 1,35,36
 1198 1561 1198 1561 1085 1573 c 1,37,38
 1085 1532 1085 1532 1104 1497 c 1,39,-1
 1104 1478 l 1,40,41
 1085 1478 1085 1478 1047 1497 c 1,42,43
 951 1452 951 1452 254 818 c 1,44,-1
 197 818 l 1,45,-1
 197 931 l 1,46,-1
 178 969 l 1,47,-1
 197 969 l 1,48,-1
 178 1233 l 2,49,50
 178 1248 178 1248 197 1422 c 1,51,52
 165 1422 165 1422 159 1460 c 1,53,-1
 159 1516 l 1,54,-1
 197 1573 l 1,55,-1
 197 1592 l 2,56,57
 197 1625 197 1625 159 1629 c 1,58,-1
 84 1629 l 1,0,-1
EndSplineSet
Validated: 9
EndChar

StartChar: L
Encoding: 76 76 47
Width: 1292
GlyphClass: 1
Flags: W
LayerCount: 2
Fore
SplineSet
156 1632 m 1,0,1
 110 1595 110 1595 81 1595 c 1,2,-1
 79 1322 l 1,3,-1
 98 1228 l 1,4,5
 79 1228 79 1228 79 1209 c 1,6,-1
 98 1171 l 1,7,8
 79 1002 79 1002 79 907 c 2,9,-1
 79 623 l 1,10,11
 88 385 88 385 69 12 c 1,12,-1
 145 12 l 2,13,14
 207 12 207 12 239 31 c 1,15,-1
 579 -7 l 1,16,17
 694 12 694 12 843 12 c 2,18,-1
 975 12 l 1,19,-1
 1164 -7 l 1,20,-1
 1221 69 l 1,21,-1
 1221 87 l 2,22,23
 1221 119 1221 119 1183 125 c 1,24,-1
 541 125 l 1,25,-1
 447 106 l 1,26,27
 447 125 447 125 390 125 c 2,28,-1
 182 125 l 1,29,-1
 192 397 l 1,30,-1
 192 529 l 2,31,32
 192 570 192 570 211 605 c 1,33,34
 192 640 192 640 192 680 c 2,35,-1
 192 850 l 2,36,37
 192 1019 192 1019 211 1171 c 1,38,39
 194 1284 194 1284 194 1481 c 2,40,-1
 194 1500 l 1,41,-1
 213 1595 l 1,42,43
 194 1595 194 1595 194 1632 c 1,44,-1
 156 1632 l 1,0,1
EndSplineSet
Validated: 41
EndChar

StartChar: M
Encoding: 77 77 48
Width: 1500
GlyphClass: 1
Flags: W
LayerCount: 2
Fore
SplineSet
117 1635 m 1,1,2
 79 969 79 969 79 936 c 0,3,4
 79 851 79 851 98 710 c 1,5,6
 70 399 70 399 70 215 c 2,7,-1
 70 139 l 1,8,-1
 51 45 l 1,9,10
 70 45 70 45 70 7 c 1,11,-1
 145 7 l 2,12,13
 184 7 184 7 202 233 c 1,14,15
 183 233 183 233 183 252 c 2,16,-1
 202 366 l 1,17,-1
 192 1125 l 2,18,19
 192 1161 192 1161 211 1503 c 1,20,-1
 230 1503 l 1,21,22
 224 1306 224 1306 391 1120 c 1,23,24
 557 829 557 829 731 686 c 1,25,-1
 825 686 l 1,26,27
 1268 1458 1268 1458 1268 1484 c 1,28,-1
 1306 1484 l 1,29,30
 1306 1061 1306 1061 1287 880 c 1,31,32
 1297 519 1297 519 1297 82 c 2,33,-1
 1297 26 l 2,34,35
 1297 -12 1297 -12 1335 -12 c 0,36,37
 1376 -12 1376 -12 1411 7 c 1,38,39
 1411 204 1411 204 1392 460 c 1,40,-1
 1401 898 l 1,41,-1
 1382 936 l 1,42,43
 1401 936 1401 936 1401 955 c 2,44,-1
 1401 1616 l 2,45,46
 1401 1648 1401 1648 1363 1654 c 1,47,48
 1287 1578 1287 1578 1250 1578 c 1,49,-1
 768 818 l 1,50,-1
 617 950 l 1,51,52
 345 1609 345 1609 173 1654 c 1,53,0
 152 1654 152 1654 117 1635 c 1,1,2
EndSplineSet
Validated: 41
EndChar

StartChar: N
Encoding: 78 78 49
Width: 1405
GlyphClass: 1
Flags: W
LayerCount: 2
Fore
SplineSet
1276 1594 m 1,1,-1
 1295 1462 l 1,2,-1
 1295 1405 l 2,3,4
 1295 1353 1295 1353 1257 1292 c 1,5,-1
 1295 1198 l 1,6,7
 1276 1163 1276 1163 1276 1122 c 2,8,-1
 1276 1009 l 1,9,10
 1264 445 1264 445 1264 287 c 1,11,-1
 1227 287 l 1,12,13
 862 784 862 784 789 837 c 1,14,15
 302 1561 302 1561 152 1654 c 1,16,-1
 114 1654 l 1,17,18
 75 1646 75 1646 39 1560 c 1,19,-1
 58 1446 l 1,20,21
 39 1175 39 1175 39 1125 c 0,22,23
 39 1085 39 1085 58 974 c 1,24,25
 39 939 39 939 39 899 c 1,26,27
 58 803 58 803 58 785 c 1,28,-1
 39 748 l 1,29,30
 58 716 58 716 58 672 c 2,31,-1
 58 502 l 2,32,33
 58 456 58 456 20 143 c 1,34,-1
 20 30 l 2,35,36
 20 -8 20 -8 58 -8 c 2,37,-1
 77 -8 l 1,38,39
 133 21 133 21 133 49 c 2,40,-1
 133 181 l 1,41,42
 171 450 171 450 171 483 c 2,43,-1
 171 1106 l 1,44,-1
 190 1333 l 1,45,46
 171 1333 171 1333 171 1352 c 1,47,48
 209 1352 209 1352 209 1390 c 1,49,50
 383 1354 383 1354 497 983 c 1,51,52
 780 700 780 700 1302 23 c 1,53,54
 1321 23 1321 23 1359 42 c 1,55,-1
 1359 155 l 1,56,57
 1351 820 1351 820 1408 1198 c 1,58,59
 1389 1236 1389 1236 1389 1254 c 0,60,61
 1408 1415 1408 1415 1408 1538 c 2,62,-1
 1408 1613 l 1,63,64
 1391 1613 1391 1613 1351 1632 c 1,65,0
 1321 1632 1321 1632 1276 1594 c 1,1,-1
EndSplineSet
Validated: 41
EndChar

StartChar: O
Encoding: 79 79 50
Width: 1708
GlyphClass: 1
Flags: W
LayerCount: 2
Fore
SplineSet
839 1629 m 1,0,1
 65 1455 65 1455 65 685 c 1,2,3
 113 420 113 420 216 326 c 0,4,5
 538 24 538 24 877 24 c 2,6,-1
 971 24 l 2,7,8
 1107 24 1107 24 1236 118 c 1,9,10
 1632 381 1632 381 1632 741 c 0,11,12
 1632 1129 1632 1129 1443 1402 c 1,13,14
 1176 1648 1176 1648 952 1648 c 1,15,-1
 839 1629 l 1,0,1
310 1194 m 1,17,18
 526 1515 526 1515 1028 1515 c 1,19,20
 1138 1459 1138 1459 1160 1459 c 1,21,22
 1519 1247 1519 1247 1519 760 c 1,23,-1
 1500 628 l 1,24,25
 1302 137 1302 137 952 137 c 1,26,27
 708 194 708 194 594 194 c 1,28,29
 178 410 178 410 178 685 c 0,30,16
 178 1005 178 1005 310 1194 c 1,17,18
EndSplineSet
Validated: 9
EndChar

StartChar: P
Encoding: 80 80 51
Width: 1254
GlyphClass: 1
Flags: W
LayerCount: 2
Fore
SplineSet
147 1610 m 1,0,1
 117 1004 117 1004 79 850 c 1,2,-1
 98 774 l 1,3,4
 65 285 65 285 46 188 c 1,5,6
 58 188 58 188 103 18 c 1,7,-1
 178 18 l 1,8,-1
 216 37 l 1,9,10
 231 208 231 208 192 567 c 1,11,-1
 211 680 l 2,12,13
 211 697 211 697 192 793 c 1,14,-1
 211 831 l 1,15,16
 348 793 348 793 589 793 c 0,17,18
 756 793 756 793 853 850 c 1,19,20
 1093 850 1093 850 1174 1171 c 1,21,22
 1149 1349 1149 1349 1073 1478 c 1,23,24
 746 1667 746 1667 582 1667 c 1,25,-1
 147 1610 l 1,0,1
223 1440 m 0,27,28
 223 1553 223 1553 582 1553 c 0,29,30
 608 1553 608 1553 921 1459 c 1,31,-1
 1061 1322 l 1,32,-1
 1023 1077 l 1,33,34
 1023 948 1023 948 532 888 c 1,35,36
 520 908 520 908 211 926 c 1,37,26
 223 1289 223 1289 223 1440 c 0,27,28
EndSplineSet
Validated: 41
EndChar

StartChar: Q
Encoding: 81 81 52
Width: 1670
GlyphClass: 1
Flags: W
LayerCount: 2
Fore
SplineSet
840 1613 m 1,0,1
 445 1520 445 1520 330 1330 c 1,2,3
 187 1330 187 1330 85 858 c 1,4,5
 85 609 85 609 236 404 c 1,6,7
 470 8 470 8 897 8 c 2,8,-1
 972 8 l 2,9,10
 1039 8 1039 8 1256 121 c 1,11,-1
 1569 -140 l 1,12,-1
 1644 -140 l 1,13,-1
 1644 -45 l 1,14,15
 1545 49 1545 49 1350 197 c 1,16,-1
 1407 272 l 1,17,18
 1545 418 1545 418 1596 801 c 1,19,20
 1596 866 1596 866 1577 895 c 1,21,22
 1313 1613 1313 1613 878 1613 c 2,23,-1
 840 1613 l 1,0,1
274 1065 m 1,25,26
 388 1361 388 1361 821 1518 c 1,27,28
 1256 1430 1256 1430 1256 1273 c 1,29,30
 1463 955 1463 955 1463 744 c 2,31,-1
 1463 725 l 2,32,33
 1463 485 1463 485 1275 291 c 1,34,-1
 1237 291 l 1,35,36
 990 448 990 448 972 499 c 1,37,38
 878 485 878 485 878 442 c 2,39,-1
 878 423 l 1,40,41
 942 334 942 334 1142 197 c 1,42,-1
 1142 178 l 1,43,44
 1118 178 1118 178 954 102 c 1,45,46
 577 102 577 102 387 385 c 1,47,48
 198 675 198 675 198 876 c 1,49,24
 274 995 274 995 274 1065 c 1,25,26
EndSplineSet
Validated: 9
EndChar

StartChar: R
Encoding: 82 82 53
Width: 1273
GlyphClass: 1
Flags: W
LayerCount: 2
Fore
SplineSet
419 1662 m 2,0,1
 98 1662 98 1662 98 1511 c 1,2,-1
 117 1322 l 1,3,4
 80 1163 80 1163 60 944 c 1,5,-1
 79 812 l 1,6,-1
 60 718 l 1,7,8
 79 683 79 683 79 661 c 0,9,10
 60 520 60 520 60 510 c 1,11,-1
 81 521 l 1,12,-1
 62 521 l 1,13,14
 62 503 62 503 81 465 c 1,15,-1
 62 427 l 1,16,-1
 81 389 l 1,17,18
 62 285 62 285 62 276 c 0,19,20
 62 184 62 184 100 30 c 1,21,22
 81 30 81 30 81 12 c 2,23,-1
 81 -7 l 1,24,25
 131 -7 131 -7 194 30 c 1,26,27
 194 52 194 52 175 87 c 1,28,-1
 194 125 l 1,29,-1
 175 200 l 1,30,31
 175 300 175 300 194 408 c 1,32,33
 173 429 173 429 173 529 c 1,34,-1
 192 661 l 1,35,36
 173 661 173 661 173 680 c 1,37,-1
 211 699 l 1,38,-1
 570 699 l 1,39,40
 623 563 623 563 1058 11 c 1,41,-1
 1096 11 l 2,42,43
 1134 11 1134 11 1134 49 c 2,44,-1
 1134 87 l 1,45,46
 879 367 879 367 683 699 c 1,47,-1
 702 737 l 1,48,49
 1064 737 1064 737 1193 1114 c 1,50,51
 1193 1605 1193 1605 570 1662 c 1,52,-1
 419 1662 l 2,0,1
211 1530 m 1,53,54
 312 1530 312 1530 551 1549 c 1,55,56
 728 1530 728 1530 759 1530 c 1,57,58
 1061 1430 1061 1430 1061 1133 c 2,59,-1
 1061 1114 l 2,60,61
 1061 1045 1061 1045 985 944 c 1,62,63
 874 851 874 851 570 812 c 1,64,-1
 211 812 l 2,65,66
 179 812 179 812 173 850 c 1,67,-1
 173 926 l 1,68,69
 211 1340 211 1340 211 1379 c 2,70,-1
 211 1530 l 1,53,54
EndSplineSet
Validated: 5
EndChar

StartChar: S
Encoding: 83 83 54
Width: 1235
GlyphClass: 1
Flags: W
LayerCount: 2
Fore
SplineSet
490 1612 m 1,1,2
 186 1455 186 1455 60 1133 c 1,3,4
 60 1077 60 1077 79 1077 c 1,5,6
 79 867 79 867 287 737 c 1,7,-1
 305 737 l 1,8,-1
 645 812 l 1,9,-1
 759 812 l 1,10,11
 926 749 926 749 1034 523 c 1,12,13
 1016 370 1016 370 996 334 c 1,14,15
 837 107 837 107 637 107 c 2,16,-1
 581 107 l 2,17,18
 280 107 280 107 165 315 c 1,19,-1
 109 315 l 1,20,-1
 71 296 l 1,21,22
 71 192 71 192 184 126 c 1,23,24
 280 -6 280 -6 637 -6 c 1,25,26
 1147 146 1147 146 1147 428 c 2,27,-1
 1147 542 l 2,28,29
 1147 585 1147 585 1128 617 c 0,30,31
 960 926 960 926 759 926 c 1,32,33
 380 888 380 888 343 850 c 1,34,35
 212 850 212 850 173 1152 c 1,36,37
 186 1152 186 1152 249 1284 c 1,38,39
 383 1477 383 1477 604 1537 c 1,40,41
 779 1507 779 1507 906 1442 c 1,42,43
 1024 1228 1024 1228 1042 1228 c 2,44,-1
 1061 1228 l 2,45,46
 1090 1228 1090 1228 1117 1303 c 1,47,48
 1114 1532 1114 1532 679 1650 c 1,49,0
 627 1650 627 1650 490 1612 c 1,1,2
EndSplineSet
Validated: 9
EndChar

StartChar: T
Encoding: 84 84 55
Width: 1519
GlyphClass: 1
Flags: W
LayerCount: 2
Fore
SplineSet
1188 1647 m 1,0,-1
 1188 1590 l 1,1,2
 1148 1590 1148 1590 1113 1609 c 1,3,4
 812 1571 812 1571 716 1571 c 1,5,6
 646 1626 646 1626 346 1644 c 1,7,8
 63 1632 63 1632 63 1569 c 1,9,-1
 101 1512 l 1,10,11
 154 1512 154 1512 346 1550 c 1,12,13
 624 1477 624 1477 697 1477 c 1,14,-1
 697 1439 l 1,15,-1
 678 1345 l 1,16,17
 739 1284 739 1284 739 905 c 1,18,-1
 758 867 l 1,19,20
 739 867 739 867 739 848 c 2,21,-1
 739 55 l 1,22,23
 760 55 760 55 795 36 c 1,24,25
 847 36 847 36 871 150 c 1,26,-1
 852 263 l 1,27,-1
 852 697 l 1,28,-1
 871 792 l 1,29,30
 852 792 852 792 852 830 c 0,31,32
 867 1245 867 1245 829 1477 c 1,33,-1
 961 1496 l 1,34,-1
 1377 1496 l 1,35,36
 1452 1543 1452 1543 1452 1571 c 2,37,-1
 1452 1628 l 1,38,-1
 1320 1647 l 1,39,-1
 1188 1647 l 1,0,-1
EndSplineSet
Validated: 41
EndChar

StartChar: U
Encoding: 85 85 56
Width: 1443
GlyphClass: 1
Flags: W
LayerCount: 2
Fore
SplineSet
1262 1638 m 2,0,1
 1232 1638 1232 1638 1206 1506 c 1,2,3
 1225 1474 1225 1474 1225 1431 c 2,4,-1
 1225 1374 l 1,5,6
 1232 1384 1232 1384 1250 1190 c 1,7,8
 1231 1155 1231 1155 1231 1114 c 1,9,10
 1250 1114 1250 1114 1250 1095 c 1,11,12
 1231 1095 1231 1095 1231 1077 c 2,13,-1
 1231 1001 l 1,14,15
 1237 326 1237 326 765 119 c 1,16,17
 702 119 702 119 444 157 c 1,18,19
 229 208 229 208 154 680 c 1,20,21
 188 680 188 680 211 1624 c 1,22,-1
 154 1662 l 1,23,-1
 136 1662 l 1,24,-1
 98 1643 l 1,25,26
 66 595 66 595 66 440 c 1,27,28
 102 282 102 282 217 138 c 1,29,30
 316 6 316 6 746 6 c 0,31,32
 854 6 854 6 1029 157 c 1,33,34
 1344 526 1344 526 1344 944 c 1,35,36
 1325 944 1325 944 1325 963 c 1,37,38
 1344 963 1344 963 1344 982 c 2,39,-1
 1338 1317 l 1,40,-1
 1357 1412 l 1,41,42
 1331 1412 1331 1412 1319 1619 c 1,43,-1
 1319 1638 l 1,44,-1
 1262 1638 l 2,0,1
EndSplineSet
Validated: 41
EndChar

StartChar: V
Encoding: 86 86 57
Width: 1500
GlyphClass: 1
Flags: W
LayerCount: 2
Fore
SplineSet
95 1605 m 2,1,-1
 95 1548 l 1,2,3
 268 1281 268 1281 454 812 c 1,4,5
 617 129 617 129 720 0 c 1,6,-1
 758 0 l 1,7,8
 756 94 756 94 1455 1548 c 1,9,10
 1455 1624 1455 1624 1398 1624 c 1,11,-1
 1322 1548 l 1,12,13
 1124 1077 1124 1077 964 774 c 1,14,15
 773 243 773 243 720 189 c 1,16,-1
 586 793 l 1,17,18
 244 1632 244 1632 152 1662 c 1,19,0
 95 1632 95 1632 95 1605 c 2,1,-1
EndSplineSet
Validated: 41
EndChar

StartChar: W
Encoding: 87 87 58
Width: 2104
GlyphClass: 1
Flags: W
LayerCount: 2
Fore
SplineSet
2013 1664 m 1,0,1
 1904 1645 1904 1645 1862 1645 c 1,2,-1
 1862 1607 l 1,3,-1
 1881 1607 l 1,4,5
 1874 1435 1874 1435 1741 1152 c 1,6,7
 1565 437 1565 437 1473 231 c 1,8,-1
 1454 231 l 1,9,10
 1324 722 1324 722 1212 944 c 1,11,12
 1040 1614 1040 1614 1007 1614 c 2,13,-1
 969 1614 l 1,14,15
 931 1441 931 1441 778 907 c 1,16,17
 680 476 680 476 534 237 c 1,18,-1
 510 212 l 1,19,20
 391 525 391 525 359 552 c 1,21,22
 284 1233 284 1233 214 1350 c 1,23,24
 177 1633 177 1633 139 1633 c 2,25,-1
 101 1633 l 2,26,27
 69 1633 69 1633 63 1595 c 1,28,-1
 63 1501 l 2,29,30
 60 1309 60 1309 192 944 c 1,31,32
 189 456 189 456 529 23 c 1,33,34
 771 429 771 429 969 1312 c 1,35,-1
 1007 1312 l 1,36,37
 1097 773 1097 773 1322 269 c 1,38,39
 1373 4 1373 4 1417 4 c 2,40,-1
 1454 4 l 1,41,-1
 1511 42 l 1,42,-1
 1873 1171 l 1,43,-1
 2032 1607 l 1,44,-1
 2032 1626 l 1,45,-1
 2013 1664 l 1,0,1
EndSplineSet
Validated: 41
EndChar

StartChar: X
Encoding: 88 88 59
Width: 1367
GlyphClass: 1
Flags: W
LayerCount: 2
Fore
SplineSet
186 1647 m 2,0,1
 154 1647 154 1647 148 1609 c 1,2,-1
 148 1571 l 1,3,-1
 318 1269 l 1,4,5
 564 876 564 876 564 835 c 2,6,-1
 564 816 l 1,7,8
 112 117 112 117 39 44 c 1,9,-1
 39 25 l 2,10,11
 39 -12 39 -12 77 -12 c 2,12,-1
 115 -12 l 1,13,14
 200 103 200 103 620 721 c 1,15,-1
 658 721 l 1,16,17
 658 648 658 648 809 476 c 1,18,19
 975 160 975 160 1017 117 c 1,20,21
 1050 4 1050 4 1187 4 c 2,22,-1
 1206 4 l 1,23,24
 1206 23 1206 23 1225 61 c 1,25,26
 1192 146 1192 146 1093 212 c 1,27,28
 947 491 947 491 715 816 c 1,29,-1
 1281 1571 l 1,30,-1
 1281 1590 l 2,31,32
 1281 1622 1281 1622 1244 1628 c 1,33,-1
 1187 1628 l 1,34,-1
 1111 1571 l 1,35,36
 890 1180 890 1180 658 948 c 1,37,38
 640 948 640 948 602 1024 c 1,39,40
 281 1563 281 1563 205 1647 c 1,41,-1
 186 1647 l 2,0,1
EndSplineSet
Validated: 9
EndChar

StartChar: Y
Encoding: 89 89 60
Width: 1368
GlyphClass: 1
Flags: W
LayerCount: 2
Fore
SplineSet
117 1624 m 1,0,-1
 60 1586 l 1,1,-1
 60 1530 l 1,2,3
 230 1381 230 1381 230 1341 c 1,4,5
 570 946 570 946 570 869 c 2,6,-1
 585 31 l 1,7,-1
 604 -7 l 1,8,-1
 698 12 l 1,9,-1
 698 182 l 1,10,-1
 679 295 l 1,11,12
 698 326 698 326 698 390 c 2,13,-1
 683 831 l 1,14,15
 1038 1303 1038 1303 1061 1303 c 1,16,17
 1061 1362 1061 1362 1287 1549 c 1,18,-1
 1268 1624 l 1,19,-1
 1193 1624 l 1,20,-1
 1117 1568 l 1,21,22
 878 1210 878 1210 645 963 c 1,23,-1
 645 1001 l 1,24,25
 407 1278 407 1278 324 1435 c 1,26,27
 173 1563 173 1563 173 1624 c 1,28,-1
 117 1624 l 1,0,-1
EndSplineSet
Validated: 9
EndChar

StartChar: Z
Encoding: 90 90 61
Width: 1500
GlyphClass: 1
Flags: W
LayerCount: 2
Fore
SplineSet
284 1655 m 1,0,1
 247 1655 247 1655 208 1541 c 1,2,-1
 227 1504 l 1,3,4
 348 1504 348 1504 1228 1541 c 1,5,-1
 1247 1541 l 1,6,7
 1064 1192 1064 1192 691 867 c 1,8,9
 82 162 82 162 82 49 c 2,10,-1
 82 30 l 1,11,12
 94 -27 94 -27 233 -27 c 2,13,-1
 290 -27 l 1,14,-1
 1026 49 l 1,15,16
 1104 30 1104 30 1177 30 c 2,17,-1
 1253 30 l 1,18,-1
 1253 87 l 2,19,20
 1253 135 1253 135 1045 162 c 1,21,22
 761 125 761 125 233 87 c 1,23,-1
 214 87 l 1,24,-1
 214 105 l 1,25,26
 687 731 687 731 728 734 c 1,27,28
 1406 1493 1406 1493 1436 1598 c 1,29,30
 1436 1655 1436 1655 1398 1655 c 2,31,-1
 1341 1655 l 2,32,33
 1076 1655 1076 1655 548 1617 c 0,34,35
 540 1617 540 1617 397 1636 c 1,36,37
 397 1617 397 1617 359 1617 c 1,38,-1
 284 1655 l 1,0,1
EndSplineSet
Validated: 9
EndChar

StartChar: bracketleft
Encoding: 91 91 62
Width: 706
GlyphClass: 1
Flags: W
LayerCount: 2
Fore
SplineSet
345 1626 m 1,0,1
 81 1608 81 1608 81 1550 c 0,2,3
 81 1489 81 1489 100 1456 c 1,4,5
 100 1436 100 1436 81 1399 c 1,6,7
 81 1316 81 1316 100 1211 c 1,8,-1
 60 472 l 1,9,10
 79 343 79 343 79 95 c 2,11,-1
 79 0 l 1,12,13
 273 0 273 0 551 -37 c 1,14,15
 589 -37 589 -37 589 0 c 2,16,-1
 589 57 l 1,17,18
 192 99 192 99 192 151 c 2,19,-1
 192 227 l 2,20,21
 192 383 192 383 173 472 c 1,22,23
 192 587 192 587 192 737 c 2,24,-1
 192 963 l 1,25,-1
 213 1286 l 1,26,27
 194 1286 194 1286 194 1324 c 1,28,-1
 213 1494 l 1,29,-1
 534 1494 l 1,30,-1
 628 1513 l 1,31,-1
 628 1550 l 2,32,33
 628 1576 628 1576 534 1626 c 1,34,-1
 496 1626 l 1,35,-1
 383 1607 l 1,36,-1
 345 1626 l 1,0,1
EndSplineSet
Validated: 9
EndChar

StartChar: backslash
Encoding: 92 92 63
Width: 1027
GlyphClass: 1
Flags: W
LayerCount: 2
Fore
SplineSet
21 1620 m 1,0,-1
 21 1563 l 1,1,-1
 40 1563 l 1,2,3
 287 1100 287 1100 359 1037 c 1,4,5
 441 771 441 771 491 735 c 1,6,7
 903 17 903 17 982 17 c 1,8,-1
 1019 36 l 1,9,-1
 1001 112 l 1,10,11
 1001 138 1001 138 547 811 c 1,12,13
 435 1071 435 1071 115 1620 c 1,14,-1
 21 1620 l 1,0,-1
EndSplineSet
Validated: 9
EndChar

StartChar: bracketright
Encoding: 93 93 64
Width: 801
GlyphClass: 1
Flags: W
LayerCount: 2
Fore
SplineSet
287 1605 m 1,1,-1
 249 1624 l 1,2,3
 117 1612 117 1612 117 1568 c 2,4,-1
 117 1549 l 2,5,6
 117 1521 117 1521 192 1492 c 1,7,8
 426 1530 426 1530 532 1530 c 0,9,10
 554 1530 554 1530 589 1511 c 1,11,12
 591 719 591 719 591 168 c 1,13,-1
 553 111 l 1,14,15
 203 170 203 170 98 170 c 0,16,17
 66 170 66 170 60 132 c 1,18,-1
 60 114 l 1,19,20
 100 41 100 41 289 17 c 1,21,-1
 534 17 l 1,22,-1
 629 36 l 1,23,24
 629 17 629 17 648 17 c 0,25,26
 666 17 666 17 704 36 c 1,27,-1
 704 130 l 1,28,-1
 723 168 l 1,29,-1
 704 206 l 1,30,31
 683 1312 683 1312 721 1605 c 1,32,33
 689 1605 689 1605 683 1643 c 1,34,-1
 570 1624 l 2,35,36
 562 1624 562 1624 457 1643 c 1,37,0
 424 1643 424 1643 287 1605 c 1,1,-1
EndSplineSet
Validated: 41
EndChar

StartChar: asciicircum
Encoding: 94 94 65
Width: 3822
GlyphClass: 1
Flags: W
LayerCount: 2
Fore
SplineSet
448 1624 m 1,0,-1
 468 1624 l 2,1,2
 482 1624 482 1624 496 1584 c 1,3,4
 505 1584 505 1584 516 1552 c 1,5,6
 530 1537 530 1537 552 1508 c 1,7,8
 581 1404 581 1404 600 1404 c 1,9,10
 629 1376 629 1376 632 1340 c 1,11,12
 643 1340 643 1340 688 1232 c 1,13,14
 688 1219 688 1219 728 1152 c 0,15,16
 752 1115 752 1115 752 1076 c 0,17,18
 749 1065 749 1065 732 1056 c 1,19,-1
 712 1056 l 2,20,21
 695 1056 695 1056 668 1132 c 1,22,23
 654 1132 654 1132 624 1216 c 1,24,25
 600 1252 600 1252 600 1268 c 1,26,27
 591 1274 591 1274 564 1344 c 1,28,29
 508 1395 508 1395 508 1436 c 1,30,31
 492 1481 492 1481 464 1500 c 1,32,33
 464 1510 464 1510 452 1536 c 1,34,35
 425 1521 425 1521 408 1480 c 1,36,37
 337 1409 337 1409 268 1292 c 1,38,39
 244 1237 244 1237 224 1216 c 1,40,41
 224 1207 224 1207 212 1200 c 1,42,43
 204 1200 204 1200 188 1168 c 1,44,45
 145 1131 145 1131 116 1072 c 1,46,-1
 104 1064 l 1,47,-1
 80 1064 l 1,48,49
 60 1072 60 1072 60 1092 c 2,50,-1
 60 1096 l 1,51,52
 67 1143 67 1143 124 1196 c 1,53,54
 148 1251 148 1251 172 1256 c 1,55,56
 185 1269 185 1269 244 1384 c 1,57,58
 282 1413 282 1413 308 1468 c 1,59,60
 342 1491 342 1491 376 1556 c 1,61,62
 387 1556 387 1556 436 1616 c 1,63,-1
 448 1624 l 1,0,-1
EndSplineSet
Validated: 1
EndChar

StartChar: underscore
Encoding: 95 95 66
Width: 1632
GlyphClass: 1
Flags: W
LayerCount: 2
Fore
SplineSet
117 -585 m 1,0,1
 60 -585 60 -585 60 -623 c 2,2,-1
 60 -642 l 1,3,-1
 79 -679 l 1,4,5
 675 -679 675 -679 985 -623 c 1,6,-1
 1023 -642 l 1,7,-1
 1061 -623 l 1,8,9
 1124 -623 1124 -623 1514 -661 c 1,10,-1
 1552 -604 l 1,11,-1
 1552 -566 l 1,12,13
 1476 -566 1476 -566 1476 -528 c 1,14,15
 1315 -528 1315 -528 1136 -510 c 1,16,-1
 117 -585 l 1,0,1
EndSplineSet
Validated: 9
EndChar

StartChar: a
Encoding: 97 97 67
Width: 1254
GlyphClass: 1
Flags: W
LayerCount: 2
Fore
SplineSet
618 1153 m 1,0,1
 271 1114 271 1114 56 584 c 1,2,3
 65 348 65 348 102 262 c 1,4,5
 242 -2 242 -2 479 -2 c 1,6,7
 856 132 856 132 1000 509 c 1,8,9
 1047 377 1047 377 1084 17 c 1,10,-1
 1159 17 l 1,11,-1
 1159 36 l 1,12,-1
 1140 74 l 1,13,-1
 1178 92 l 1,14,15
 1171 565 1171 565 1132 565 c 1,16,17
 1129 1031 1129 1031 770 1153 c 1,18,-1
 618 1153 l 1,0,1
694 1040 m 2,20,-1
 713 1040 l 1,21,22
 883 1010 883 1010 883 889 c 0,23,24
 883 851 883 851 845 851 c 1,25,-1
 887 528 l 1,26,27
 722 154 722 154 498 111 c 1,28,29
 169 312 169 312 169 584 c 1,30,19
 336 1040 336 1040 694 1040 c 2,20,-1
EndSplineSet
Validated: 9
EndChar

StartChar: b
Encoding: 98 98 68
Width: 1122
GlyphClass: 1
Flags: W
LayerCount: 2
Fore
SplineSet
230 1775 m 1,0,-1
 154 1719 l 1,1,2
 154 1702 154 1702 173 1662 c 1,3,4
 173 1626 173 1626 79 996 c 1,5,6
 98 996 98 996 98 977 c 0,7,8
 71 689 71 689 71 555 c 0,9,10
 71 451 71 451 147 329 c 1,11,12
 147 161 147 161 486 8 c 1,13,-1
 505 8 l 2,14,15
 863 8 863 8 1053 461 c 1,16,17
 1043 1147 1043 1147 570 1147 c 0,18,19
 418 1147 418 1147 211 1015 c 1,20,21
 305 1618 305 1618 305 1662 c 1,22,23
 275 1775 275 1775 249 1775 c 2,24,-1
 230 1775 l 1,0,-1
203 612 m 1,25,26
 311 953 311 953 494 1034 c 1,27,-1
 608 1034 l 1,28,29
 846 820 846 820 940 593 c 1,30,31
 940 242 940 242 619 140 c 1,32,33
 203 209 203 209 203 536 c 2,34,-1
 203 612 l 1,25,26
EndSplineSet
Validated: 9
EndChar

StartChar: c
Encoding: 99 99 69
Width: 1009
GlyphClass: 1
Flags: W
LayerCount: 2
Fore
SplineSet
324 1077 m 1,1,2
 104 775 104 775 56 528 c 1,3,4
 59 93 59 93 415 18 c 1,5,-1
 509 18 l 1,6,7
 868 93 868 93 868 170 c 2,8,-1
 868 207 l 1,9,-1
 849 245 l 1,10,-1
 566 132 l 1,11,-1
 453 132 l 1,12,13
 188 194 188 194 188 377 c 0,14,15
 192 1039 192 1039 608 1039 c 0,16,17
 721 1039 721 1039 891 888 c 1,18,-1
 929 888 l 1,19,-1
 929 926 l 1,20,-1
 872 926 l 1,21,-1
 891 963 l 1,22,23
 891 1092 891 1092 664 1152 c 1,24,0
 458 1134 458 1134 324 1077 c 1,1,2
EndSplineSet
Validated: 9
EndChar

StartChar: d
Encoding: 100 100 70
Width: 1197
GlyphClass: 1
Flags: W
LayerCount: 2
Fore
SplineSet
965 1568 m 1,1,2
 984 1568 984 1568 984 1549 c 1,3,4
 965 1549 965 1549 965 1530 c 2,5,-1
 963 1175 l 1,6,-1
 944 987 l 1,7,-1
 907 987 l 1,8,9
 907 1106 907 1106 510 1175 c 1,10,-1
 397 1138 l 1,11,12
 57 968 57 968 57 722 c 2,13,-1
 57 685 l 1,14,15
 50 459 50 459 68 358 c 1,16,17
 247 -6 247 -6 448 -6 c 2,18,-1
 636 -6 l 1,19,20
 1098 132 1098 132 1098 1530 c 0,21,22
 1098 1547 1098 1547 1079 1643 c 1,23,24
 1116 1758 1116 1758 1116 1794 c 1,25,26
 1098 1794 1098 1794 1098 1813 c 1,27,0
 965 1813 965 1813 965 1568 c 1,1,2
529 1062 m 2,29,-1
 567 1062 l 2,30,31
 610 1062 610 1062 642 1043 c 1,32,33
 767 1043 767 1043 926 779 c 1,34,-1
 907 685 l 1,35,36
 816 89 816 89 580 89 c 1,37,38
 481 108 481 108 410 108 c 1,39,40
 151 487 151 487 151 647 c 1,41,28
 228 1062 228 1062 529 1062 c 2,29,-1
EndSplineSet
Validated: 41
EndChar

StartChar: e
Encoding: 101 101 71
Width: 1160
GlyphClass: 1
Flags: W
LayerCount: 2
Fore
SplineSet
532 1152 m 2,0,1
 144 1152 144 1152 60 680 c 1,2,-1
 60 510 l 1,3,-1
 92 290 l 1,4,5
 326 -12 326 -12 564 -12 c 0,6,7
 933 -12 933 -12 1074 177 c 1,8,-1
 1074 271 l 1,9,10
 1057 271 1057 271 1017 290 c 1,11,12
 818 82 818 82 639 82 c 1,13,14
 280 170 280 170 173 529 c 1,15,-1
 173 548 l 1,16,17
 267 568 267 568 1061 586 c 1,18,19
 1061 604 1061 604 1080 642 c 1,20,21
 1042 694 1042 694 1042 812 c 0,22,23
 1042 1083 1042 1083 589 1152 c 1,24,-1
 532 1152 l 2,0,1
173 661 m 1,25,26
 245 1039 245 1039 438 1039 c 2,27,-1
 532 1039 l 1,28,29
 742 1030 742 1030 778 982 c 1,30,31
 917 982 917 982 929 718 c 1,32,-1
 891 699 l 1,33,-1
 834 699 l 2,34,35
 753 699 753 699 626 680 c 1,36,-1
 589 699 l 1,37,-1
 173 661 l 1,25,26
EndSplineSet
Validated: 9
EndChar

StartChar: f
Encoding: 102 102 72
Width: 1065
GlyphClass: 1
Flags: W
LayerCount: 2
Fore
SplineSet
495 1518 m 1,1,2
 408 1423 408 1423 381 1247 c 1,3,-1
 381 1077 l 2,4,5
 381 938 381 938 324 926 c 1,6,-1
 268 926 l 1,7,-1
 79 944 l 1,8,-1
 60 907 l 1,9,-1
 60 888 l 2,10,11
 60 863 60 863 230 812 c 1,12,13
 249 812 249 812 287 831 c 1,14,15
 322 812 322 812 362 812 c 1,16,-1
 362 756 l 2,17,18
 362 712 362 712 343 680 c 1,19,-1
 362 642 l 1,20,21
 362 572 362 572 343 321 c 1,22,23
 362 191 362 191 362 170 c 1,24,25
 343 170 343 170 324 114 c 1,26,27
 324 39 324 39 419 0 c 1,28,-1
 438 0 l 1,29,30
 464 132 464 132 494 132 c 1,31,32
 476 260 476 260 457 302 c 1,33,-1
 475 397 l 1,34,35
 475 511 475 511 457 737 c 1,36,37
 481 831 481 831 513 831 c 2,38,-1
 834 831 l 2,39,40
 872 831 872 831 872 869 c 0,41,42
 872 941 872 941 475 963 c 1,43,-1
 475 1058 l 1,44,45
 400 1351 400 1351 646 1462 c 1,46,47
 730 1462 730 1462 797 1424 c 1,48,-1
 778 1329 l 1,49,50
 778 1306 778 1306 891 1292 c 1,51,-1
 910 1329 l 1,52,-1
 910 1405 l 1,53,54
 862 1632 862 1632 740 1632 c 1,55,0
 615 1614 615 1614 495 1518 c 1,1,2
EndSplineSet
Validated: 41
EndChar

StartChar: g
Encoding: 103 103 73
Width: 1027
GlyphClass: 1
Flags: W
LayerCount: 2
Fore
SplineSet
536 1175 m 1,0,1
 49 1008 49 1008 49 740 c 2,2,-1
 49 664 l 1,3,4
 74 115 74 115 395 -3 c 1,5,6
 632 -21 632 -21 788 55 c 1,7,-1
 788 -96 l 1,8,-1
 807 -134 l 1,9,-1
 788 -172 l 1,10,11
 782 -509 782 -509 555 -563 c 1,12,13
 315 -563 315 -563 140 -394 c 1,14,15
 112 -394 112 -394 83 -469 c 1,16,17
 152 -638 152 -638 498 -677 c 1,18,19
 644 -658 644 -658 782 -563 c 1,20,21
 937 -169 937 -169 985 555 c 1,22,-1
 951 665 l 1,23,24
 951 775 951 775 933 967 c 1,25,26
 951 1005 951 1005 951 1024 c 1,27,28
 917 1175 917 1175 763 1175 c 2,29,-1
 536 1175 l 1,0,1
182 834 m 1,31,32
 427 1062 427 1062 593 1062 c 2,33,-1
 782 1062 l 1,34,-1
 819 1043 l 1,35,36
 854 839 854 839 891 592 c 1,37,38
 799 268 799 268 631 164 c 1,39,40
 234 137 234 137 243 370 c 1,41,42
 184 387 184 387 163 759 c 1,43,30
 182 759 182 759 182 834 c 1,31,32
EndSplineSet
Validated: 41
EndChar

StartChar: h
Encoding: 104 104 74
Width: 1103
GlyphClass: 1
Flags: W
LayerCount: 2
Fore
SplineSet
165 1647 m 1,0,1
 165 1605 165 1605 147 1572 c 1,2,3
 165 1539 165 1539 165 1496 c 2,4,-1
 165 1269 l 2,5,6
 165 1175 165 1175 147 986 c 1,7,8
 165 986 165 986 165 967 c 0,9,10
 165 892 165 892 71 288 c 1,11,-1
 71 80 l 1,12,-1
 90 -15 l 1,13,-1
 165 -15 l 1,14,15
 141 511 141 511 255 766 c 1,16,17
 488 961 488 961 619 961 c 1,18,-1
 619 942 l 1,19,20
 908 767 908 767 908 275 c 1,21,22
 889 275 889 275 889 257 c 1,23,24
 908 225 908 225 908 181 c 2,25,-1
 908 49 l 2,26,27
 908 11 908 11 946 11 c 2,28,-1
 983 11 l 2,29,30
 1022 11 1022 11 1040 124 c 1,31,-1
 1021 162 l 1,32,-1
 1040 200 l 1,33,34
 992 735 992 735 978 735 c 1,35,36
 978 992 978 992 619 1056 c 1,37,-1
 582 1056 l 1,38,39
 292 1011 292 1011 292 936 c 1,40,-1
 236 936 l 1,41,42
 236 1022 236 1022 274 1332 c 0,43,44
 279 1397 279 1397 279 1590 c 0,45,46
 279 1647 279 1647 241 1647 c 2,47,-1
 165 1647 l 1,0,1
EndSplineSet
Validated: 41
EndChar

StartChar: i
Encoding: 105 105 75
Width: 366
GlyphClass: 1
Flags: W
LayerCount: 2
Fore
SplineSet
182 1632 m 2,0,1
 119 1632 119 1632 50 1575 c 1,2,3
 50 1475 50 1475 126 1443 c 1,4,-1
 201 1443 l 1,5,6
 277 1489 277 1489 277 1518 c 2,7,-1
 277 1556 l 1,8,9
 232 1632 232 1632 201 1632 c 2,10,-1
 182 1632 l 2,0,1
121 1171 m 1,11,12
 102 961 102 961 83 697 c 1,13,14
 102 358 102 358 102 262 c 1,15,16
 83 88 83 88 83 73 c 1,17,18
 125 17 125 17 140 17 c 2,19,-1
 177 17 l 1,20,-1
 234 55 l 1,21,22
 234 126 234 126 215 225 c 1,23,-1
 234 300 l 1,24,25
 216 468 216 468 196 508 c 1,26,-1
 215 508 l 1,27,28
 177 1004 177 1004 177 1096 c 2,29,-1
 177 1134 l 2,30,31
 177 1165 177 1165 139 1171 c 1,32,-1
 121 1171 l 1,11,12
EndSplineSet
Validated: 9
EndChar

StartChar: j
Encoding: 106 106 76
Width: 1009
GlyphClass: 1
Flags: W
LayerCount: 2
Fore
SplineSet
675 1538 m 1,1,2
 739 1428 739 1428 807 1387 c 1,3,-1
 845 1387 l 1,4,-1
 940 1462 l 1,5,6
 940 1596 940 1596 807 1632 c 1,7,0
 732 1632 732 1632 675 1538 c 1,1,2
849 880 m 1,8,9
 779 861 779 861 774 861 c 1,10,-1
 774 767 l 1,11,12
 811 634 811 634 811 616 c 0,13,14
 811 150 811 150 774 -423 c 1,15,16
 718 -593 718 -593 547 -593 c 2,17,-1
 396 -593 l 2,18,19
 244 -593 244 -593 169 -196 c 1,20,-1
 113 -196 l 2,21,22
 81 -196 81 -196 75 -234 c 1,23,-1
 75 -272 l 1,24,25
 126 -706 126 -706 434 -706 c 2,26,-1
 585 -706 l 2,27,28
 629 -706 629 -706 793 -612 c 1,29,30
 887 -612 887 -612 944 465 c 1,31,32
 925 539 925 539 925 635 c 2,33,-1
 925 767 l 1,34,-1
 849 880 l 1,8,9
EndSplineSet
Validated: 9
EndChar

StartChar: k
Encoding: 107 107 77
Width: 1160
GlyphClass: 1
Flags: W
LayerCount: 2
Fore
SplineSet
168 1644 m 1,0,-1
 112 1606 l 1,1,2
 112 1589 112 1589 131 1549 c 1,3,-1
 112 1474 l 1,4,5
 112 1433 112 1433 131 1398 c 1,6,-1
 112 1361 l 1,7,8
 112 1344 112 1344 131 1304 c 1,9,-1
 112 1266 l 1,10,-1
 136 605 l 1,11,-1
 72 38 l 1,12,13
 91 38 91 38 91 0 c 1,14,-1
 148 0 l 1,15,16
 206 58 206 58 230 491 c 1,17,18
 281 439 281 439 551 665 c 1,19,20
 764 321 764 321 1077 -8 c 1,21,-1
 1096 -8 l 2,22,23
 1134 -8 1134 -8 1134 30 c 2,24,-1
 1134 87 l 1,25,26
 971 276 971 276 945 276 c 1,27,28
 742 607 742 607 645 721 c 1,29,30
 1080 1057 1080 1057 1080 1080 c 2,31,-1
 1080 1137 l 1,32,-1
 985 1156 l 1,33,-1
 947 1156 l 1,34,35
 947 1110 947 1110 891 1061 c 1,36,-1
 249 623 l 1,37,38
 249 755 249 755 230 850 c 1,39,40
 249 850 249 850 249 869 c 1,41,42
 230 904 230 904 230 944 c 2,43,-1
 244 1172 l 1,44,-1
 263 1398 l 1,45,46
 244 1398 244 1398 244 1436 c 1,47,48
 263 1473 263 1473 263 1493 c 0,49,50
 251 1644 251 1644 206 1644 c 2,51,-1
 168 1644 l 1,0,-1
EndSplineSet
Validated: 41
EndChar

StartChar: l
Encoding: 108 108 78
Width: 291
GlyphClass: 1
Flags: W
LayerCount: 2
Fore
SplineSet
76 1650 m 1,0,-1
 76 1631 l 1,1,2
 126 1446 126 1446 126 1139 c 1,3,4
 69 488 69 488 69 195 c 2,5,-1
 69 63 l 1,6,7
 99 6 99 6 126 6 c 2,8,-1
 182 6 l 1,9,-1
 182 63 l 1,10,11
 189 75 189 75 227 1310 c 1,12,-1
 227 1461 l 1,13,14
 205 1650 205 1650 152 1650 c 2,15,-1
 76 1650 l 1,0,-1
EndSplineSet
Validated: 9
EndChar

StartChar: m
Encoding: 109 109 79
Width: 1537
GlyphClass: 1
Flags: W
LayerCount: 2
Fore
SplineSet
803 983 m 1,1,-1
 765 1002 l 1,2,3
 711 1153 711 1153 595 1153 c 2,4,-1
 500 1153 l 1,5,6
 156 994 156 994 61 352 c 1,7,8
 61 163 61 163 163 25 c 1,9,-1
 238 25 l 1,10,11
 238 225 238 225 200 327 c 1,12,13
 260 665 260 665 306 702 c 1,14,15
 294 1021 294 1021 595 1039 c 1,16,-1
 595 1020 l 1,17,18
 703 872 703 872 759 476 c 1,19,20
 729 347 729 347 729 327 c 2,21,-1
 729 289 l 1,22,-1
 748 251 l 1,23,24
 729 251 729 251 729 233 c 0,25,26
 729 152 729 152 767 82 c 1,27,28
 861 95 861 95 861 138 c 2,29,-1
 861 176 l 1,30,31
 873 454 873 454 853 665 c 1,32,33
 964 1058 964 1058 1086 1058 c 2,34,-1
 1142 1058 l 1,35,-1
 1237 1039 l 1,36,37
 1290 765 1290 765 1390 327 c 1,38,39
 1371 327 1371 327 1371 308 c 2,40,-1
 1371 44 l 2,41,42
 1371 6 1371 6 1409 6 c 2,43,-1
 1428 6 l 1,44,45
 1484 35 1484 35 1484 63 c 1,46,-1
 1465 100 l 1,47,48
 1484 100 1484 100 1484 119 c 2,49,-1
 1484 327 l 1,50,51
 1441 1020 1441 1020 1388 1020 c 1,52,53
 1388 1141 1388 1141 1086 1171 c 1,54,0
 984 1171 984 1171 803 983 c 1,1,-1
EndSplineSet
Validated: 41
EndChar

StartChar: n
Encoding: 110 110 80
Width: 1103
GlyphClass: 1
Flags: W
LayerCount: 2
Fore
SplineSet
293 1037 m 1,1,2
 160 779 160 779 65 389 c 1,3,-1
 65 105 l 1,4,-1
 84 68 l 1,5,6
 65 68 65 68 65 49 c 2,7,-1
 65 30 l 2,8,9
 65 -8 65 -8 103 -8 c 2,10,-1
 141 -8 l 2,11,12
 178 -8 178 -8 178 30 c 2,13,-1
 178 313 l 1,14,15
 250 685 250 685 297 722 c 1,16,17
 297 929 297 929 500 1037 c 1,18,19
 606 1018 606 1018 614 1018 c 2,20,-1
 708 1037 l 1,21,22
 842 812 842 812 909 340 c 1,23,-1
 890 302 l 1,24,25
 909 141 909 141 909 113 c 1,26,-1
 890 37 l 1,27,-1
 946 0 l 1,28,-1
 965 0 l 1,29,30
 1022 30 1022 30 1022 56 c 2,31,-1
 1022 113 l 1,32,-1
 1003 151 l 1,33,-1
 1022 151 l 1,34,35
 1022 222 1022 222 1003 321 c 1,36,-1
 1022 358 l 1,37,38
 1049 1063 1049 1063 689 1150 c 1,39,0
 406 1150 406 1150 293 1037 c 1,1,2
EndSplineSet
Validated: 41
EndChar

StartChar: o
Encoding: 111 111 81
Width: 1310
GlyphClass: 1
Flags: W
LayerCount: 2
Fore
SplineSet
428 1096 m 0,1,2
 50 838 50 838 50 662 c 1,3,4
 77 303 77 303 126 303 c 1,5,6
 126 63 126 63 673 -18 c 1,7,8
 951 -18 951 -18 1221 416 c 1,9,-1
 1221 530 l 2,10,11
 1221 779 1221 779 1107 945 c 1,12,13
 945 1134 945 1134 824 1134 c 1,14,15
 824 1160 824 1160 654 1172 c 1,16,0
 484 1134 484 1134 428 1096 c 0,1,2
352 907 m 1,18,19
 419 1007 419 1007 730 1058 c 1,20,21
 941 1003 941 1003 1013 888 c 1,22,23
 1085 681 1085 681 1107 681 c 1,24,25
 1107 638 1107 638 1089 605 c 1,26,27
 1107 572 1107 572 1107 530 c 2,28,-1
 1107 473 l 1,29,30
 919 76 919 76 635 76 c 0,31,32
 528 76 528 76 428 152 c 1,33,34
 235 152 235 152 163 549 c 1,35,17
 163 766 163 766 352 907 c 1,18,19
EndSplineSet
Validated: 9
EndChar

StartChar: p
Encoding: 112 112 82
Width: 1084
GlyphClass: 1
Flags: W
LayerCount: 2
Fore
SplineSet
322 1080 m 1,1,2
 19 631 19 631 75 90 c 1,3,4
 60 -201 60 -201 173 -547 c 1,5,-1
 154 -585 l 1,6,7
 154 -642 154 -642 192 -642 c 0,8,9
 224 -642 224 -642 249 -547 c 1,10,11
 188 -65 188 -65 188 14 c 2,12,-1
 188 33 l 1,13,14
 395 -24 395 -24 490 -24 c 2,15,-1
 528 -24 l 1,16,17
 1019 105 1019 105 1019 373 c 1,18,-1
 1039 787 l 1,19,20
 1039 1032 1039 1032 661 1165 c 1,21,0
 396 1126 396 1126 322 1080 c 1,1,2
188 241 m 1,22,23
 209 969 209 969 567 1033 c 1,24,-1
 624 1033 l 1,25,26
 926 964 926 964 926 731 c 1,27,-1
 906 335 l 2,28,29
 906 305 906 305 736 165 c 1,30,31
 472 153 472 153 472 90 c 1,32,33
 342 90 342 90 188 146 c 1,34,-1
 188 241 l 1,22,23
EndSplineSet
Validated: 41
EndChar

StartChar: q
Encoding: 113 113 83
Width: 1443
GlyphClass: 1
Flags: W
LayerCount: 2
Fore
SplineSet
355 1153 m 1,0,-1
 299 1115 l 2,1,2
 153 1017 153 1017 72 757 c 1,3,4
 28 684 28 684 85 552 c 1,5,6
 76 84 76 84 477 26 c 1,7,-1
 553 26 l 2,8,9
 662 26 662 26 912 253 c 1,10,11
 912 171 912 171 931 139 c 1,12,13
 912 139 912 139 912 120 c 2,14,-1
 912 45 l 1,15,16
 855 -372 855 -372 855 -465 c 2,17,-1
 855 -541 l 2,18,19
 855 -578 855 -578 817 -578 c 1,20,21
 817 -672 817 -672 874 -692 c 1,22,23
 1021 -677 1021 -677 1365 -163 c 1,24,25
 1365 -106 1365 -106 1327 -106 c 2,26,-1
 1289 -106 l 1,27,28
 1289 -159 1289 -159 987 -465 c 1,29,-1
 968 -465 l 1,30,-1
 968 -408 l 2,31,32
 968 -307 968 -307 1025 101 c 1,33,-1
 1025 177 l 1,34,35
 995 1153 995 1153 601 1153 c 2,36,-1
 355 1153 l 1,0,-1
487 1059 m 0,38,39
 676 1056 676 1056 676 1021 c 1,40,41
 804 1021 804 1021 903 643 c 1,42,43
 874 596 874 596 874 558 c 1,44,45
 837 232 837 232 572 158 c 1,46,-1
 402 158 l 1,47,-1
 402 177 l 1,48,49
 194 409 194 409 194 643 c 1,50,37
 246 1059 246 1059 487 1059 c 0,38,39
EndSplineSet
Validated: 41
EndChar

StartChar: r
Encoding: 114 114 84
Width: 990
GlyphClass: 1
Flags: W
LayerCount: 2
Fore
SplineSet
291 952 m 1,1,2
 196 850 196 850 73 206 c 1,3,4
 97 80 97 80 167 -1 c 1,5,-1
 186 -1 l 2,6,7
 224 -1 224 -1 224 36 c 2,8,-1
 224 55 l 1,9,-1
 205 93 l 1,10,11
 243 93 243 93 243 131 c 2,12,-1
 243 150 l 2,13,14
 243 357 243 357 281 509 c 1,15,16
 262 509 262 509 262 527 c 0,17,18
 253 909 253 909 630 990 c 1,19,20
 738 990 738 990 857 877 c 1,21,-1
 876 877 l 2,22,23
 914 877 914 877 914 915 c 2,24,-1
 914 952 l 1,25,26
 809 1103 809 1103 649 1103 c 1,27,0
 291 1043 291 1043 291 952 c 1,1,2
EndSplineSet
Validated: 41
EndChar

StartChar: s
Encoding: 115 115 85
Width: 971
GlyphClass: 1
Flags: W
LayerCount: 2
Fore
SplineSet
108 729 m 1,1,-1
 108 672 l 2,2,3
 108 520 108 520 410 464 c 1,4,5
 509 483 509 483 580 483 c 2,6,-1
 637 483 l 2,7,8
 752 483 752 483 788 332 c 1,9,10
 757 163 757 163 510 131 c 1,11,-1
 491 131 l 2,12,13
 243 131 243 131 133 245 c 1,14,15
 87 207 87 207 57 207 c 1,16,-1
 57 150 l 1,17,18
 222 18 222 18 416 18 c 2,19,-1
 491 18 l 1,20,21
 850 50 850 50 920 313 c 1,22,-1
 920 351 l 1,23,24
 812 634 812 634 637 634 c 0,25,26
 579 634 579 634 486 578 c 1,27,28
 284 578 284 578 221 691 c 1,29,-1
 221 785 l 1,30,31
 398 899 398 899 467 899 c 2,32,-1
 523 899 l 1,33,34
 674 875 674 875 674 785 c 1,35,-1
 750 785 l 2,36,37
 783 785 783 785 807 880 c 1,38,39
 666 1031 666 1031 467 1031 c 0,40,0
 195 1031 195 1031 108 729 c 1,1,-1
EndSplineSet
Validated: 9
EndChar

StartChar: t
Encoding: 116 116 86
Width: 877
GlyphClass: 1
Flags: W
LayerCount: 2
Fore
SplineSet
484 1638 m 1,0,1
 422 1584 422 1584 422 1376 c 1,2,-1
 433 1117 l 1,3,4
 74 1079 74 1079 74 1023 c 0,5,6
 74 985 74 985 112 985 c 2,7,-1
 206 985 l 1,8,-1
 395 1004 l 1,9,10
 395 966 395 966 433 966 c 1,11,12
 433 903 433 903 414 872 c 1,13,14
 422 685 422 685 422 583 c 2,15,-1
 422 394 l 1,16,17
 417 248 417 248 398 26 c 1,18,19
 417 26 417 26 417 -12 c 1,20,-1
 473 -12 l 2,21,22
 511 -12 511 -12 511 26 c 2,23,-1
 511 102 l 1,24,25
 517 385 517 385 535 583 c 1,26,27
 527 796 527 796 527 928 c 0,28,29
 527 1004 527 1004 810 1004 c 1,30,-1
 810 1079 l 1,31,32
 754 1079 754 1079 754 1117 c 1,33,-1
 659 1098 l 1,34,-1
 546 1098 l 1,35,-1
 546 1193 l 1,36,37
 536 1190 536 1190 554 1319 c 1,38,39
 541 1412 541 1412 541 1468 c 0,40,41
 541 1499 541 1499 579 1505 c 1,42,43
 561 1638 561 1638 522 1638 c 2,44,-1
 484 1638 l 1,0,1
EndSplineSet
Validated: 41
EndChar

StartChar: u
Encoding: 117 117 87
Width: 1140
GlyphClass: 1
Flags: W
LayerCount: 2
Fore
SplineSet
993 1171 m 2,0,1
 965 1171 965 1171 937 1095 c 1,2,-1
 975 850 l 1,3,4
 938 663 938 663 861 291 c 1,5,6
 861 184 861 184 521 121 c 1,7,-1
 502 121 l 2,8,9
 446 121 446 121 332 196 c 1,10,11
 201 597 201 597 201 750 c 1,12,13
 220 1000 220 1000 220 1109 c 0,14,15
 220 1165 220 1165 182 1165 c 2,16,-1
 164 1165 l 2,17,18
 100 1165 100 1165 88 807 c 0,19,20
 88 750 88 750 107 750 c 1,21,22
 87 91 87 91 465 7 c 1,23,24
 673 7 673 7 880 121 c 1,25,26
 1107 258 1107 258 1107 604 c 2,27,-1
 1107 888 l 1,28,-1
 1088 982 l 1,29,30
 1107 982 1107 982 1107 1001 c 1,31,32
 1050 1142 1050 1142 1050 1171 c 1,33,-1
 993 1171 l 2,0,1
EndSplineSet
Validated: 41
EndChar

StartChar: v
Encoding: 118 118 88
Width: 1272
GlyphClass: 1
Flags: W
LayerCount: 2
Fore
SplineSet
114 1177 m 1,0,-1
 114 1158 l 1,1,2
 186 866 186 866 204 634 c 1,3,4
 435 133 435 133 544 30 c 1,5,-1
 582 30 l 1,6,7
 771 246 771 246 771 313 c 1,8,-1
 1247 1120 l 1,9,-1
 1247 1139 l 2,10,11
 1247 1171 1247 1171 1209 1177 c 1,12,-1
 1171 1177 l 1,13,14
 1074 1063 1074 1063 1020 1063 c 1,15,16
 872 590 872 590 733 521 c 1,17,18
 703 363 703 363 582 181 c 1,19,-1
 563 181 l 1,20,21
 563 267 563 267 488 351 c 1,22,23
 407 759 407 759 341 837 c 1,24,25
 259 1177 259 1177 227 1177 c 2,26,-1
 114 1177 l 1,0,-1
EndSplineSet
Validated: 9
EndChar

StartChar: w
Encoding: 119 119 89
Width: 1764
GlyphClass: 1
Flags: W
LayerCount: 2
Fore
SplineSet
740 1095 m 1,1,2
 740 1067 740 1067 778 1020 c 1,3,-1
 778 1001 l 1,4,5
 607 445 607 445 549 445 c 1,6,7
 489 219 489 219 436 219 c 2,8,-1
 417 219 l 1,9,-1
 115 1165 l 1,10,-1
 40 1165 l 1,11,12
 40 1145 40 1145 21 1108 c 1,13,14
 45 938 45 938 78 938 c 1,15,16
 268 277 268 277 379 11 c 1,17,-1
 455 11 l 2,18,19
 469 11 469 11 587 219 c 1,20,21
 842 824 842 824 872 850 c 1,22,-1
 891 850 l 1,23,24
 889 722 889 722 964 540 c 1,25,26
 1180 150 1180 150 1180 18 c 1,27,-1
 1256 18 l 1,28,29
 1297 27 1297 27 1445 339 c 1,30,31
 1723 955 1723 955 1723 1014 c 2,32,-1
 1723 1128 l 1,33,-1
 1704 1165 l 1,34,-1
 1647 1128 l 1,35,36
 1275 266 1275 266 1275 226 c 1,37,-1
 1237 226 l 1,38,39
 1237 328 1237 328 1180 358 c 1,40,-1
 947 982 l 1,41,42
 947 1140 947 1140 759 1152 c 1,43,0
 759 1132 759 1132 740 1095 c 1,1,2
EndSplineSet
Validated: 41
EndChar

StartChar: x
Encoding: 120 120 90
Width: 1084
GlyphClass: 1
Flags: W
LayerCount: 2
Fore
SplineSet
872 1171 m 1,0,1
 857 1139 857 1139 485 723 c 1,2,-1
 117 1133 l 1,3,-1
 98 1133 l 1,4,-1
 60 1114 l 1,5,-1
 60 1077 l 1,6,-1
 410 628 l 1,7,8
 290 410 290 410 69 99 c 1,9,-1
 69 61 l 2,10,11
 69 23 69 23 107 23 c 2,12,-1
 145 23 l 1,13,14
 316 371 316 371 485 534 c 1,15,16
 915 10 915 10 956 5 c 1,17,18
 994 23 994 23 1013 23 c 1,19,-1
 1013 61 l 1,20,21
 938 130 938 130 938 156 c 1,22,23
 921 234 921 234 580 590 c 1,24,25
 571 726 571 726 966 1114 c 1,26,-1
 966 1133 l 2,27,28
 966 1165 966 1165 929 1171 c 1,29,-1
 872 1171 l 1,0,1
EndSplineSet
Validated: 41
EndChar

StartChar: y
Encoding: 121 121 91
Width: 1273
GlyphClass: 1
Flags: W
LayerCount: 2
Fore
SplineSet
165 1153 m 2,0,1
 137 1153 137 1153 108 1078 c 1,2,3
 165 908 165 908 202 908 c 1,4,5
 324 625 324 625 372 625 c 1,6,7
 443 286 443 286 577 158 c 1,8,-1
 577 120 l 1,9,-1
 161 -635 l 1,10,11
 161 -653 161 -653 218 -673 c 1,12,13
 346 -622 346 -622 901 492 c 1,14,15
 1241 1082 1241 1082 1241 1115 c 0,16,17
 1241 1147 1241 1147 1203 1153 c 1,18,-1
 1165 1153 l 1,19,20
 948 841 948 841 731 398 c 1,21,-1
 661 315 l 1,22,23
 612 435 612 435 542 587 c 1,24,25
 221 1067 221 1067 221 1153 c 1,26,-1
 165 1153 l 2,0,1
EndSplineSet
Validated: 9
EndChar

StartChar: z
Encoding: 122 122 92
Width: 1159
GlyphClass: 1
Flags: W
LayerCount: 2
Fore
SplineSet
1036 1170 m 2,0,1
 874 1170 874 1170 791 1132 c 1,2,3
 759 1151 759 1151 715 1151 c 2,4,-1
 149 1151 l 1,5,-1
 111 1132 l 1,6,-1
 130 1037 l 1,7,-1
 904 1037 l 1,8,-1
 942 1056 l 1,9,10
 870 924 870 924 810 924 c 1,11,12
 351 345 351 345 317 341 c 1,13,14
 114 133 114 133 90 133 c 1,15,-1
 90 39 l 1,16,-1
 279 20 l 1,17,18
 1110 20 1110 20 1110 115 c 2,19,-1
 1110 133 l 1,20,-1
 1091 171 l 1,21,22
 1015 171 1015 171 619 133 c 1,23,24
 584 152 584 152 562 152 c 1,25,26
 450 77 450 77 430 77 c 0,27,28
 392 77 392 77 392 133 c 1,29,-1
 279 133 l 1,30,-1
 279 152 l 1,31,32
 1111 1056 1111 1056 1131 1132 c 1,33,34
 1131 1164 1131 1164 1093 1170 c 1,35,-1
 1036 1170 l 2,0,1
EndSplineSet
Validated: 9
EndChar

StartChar: braceleft
Encoding: 123 123 93
Width: 1122
GlyphClass: 1
Flags: W
LayerCount: 2
Fore
SplineSet
924 1655 m 2,0,1
 888 1655 888 1655 697 1561 c 1,2,3
 435 1273 435 1273 414 1013 c 1,4,5
 433 1013 433 1013 433 994 c 1,6,7
 364 787 364 787 225 787 c 2,8,-1
 74 787 l 1,9,-1
 74 711 l 1,10,-1
 187 673 l 1,11,12
 229 673 229 673 338 692 c 1,13,-1
 433 654 l 1,14,15
 633 -7 633 -7 943 -7 c 1,16,-1
 1056 12 l 1,17,-1
 1056 107 l 1,18,19
 875 107 875 107 735 220 c 1,20,21
 527 787 527 787 452 787 c 1,22,23
 481 862 481 862 508 862 c 1,24,25
 508 1099 508 1099 716 1447 c 1,26,27
 943 1516 943 1516 943 1636 c 2,28,-1
 943 1655 l 1,29,-1
 924 1655 l 2,0,1
EndSplineSet
Validated: 9
EndChar

StartChar: bar
Encoding: 124 124 94
Width: 272
GlyphClass: 1
Flags: W
LayerCount: 2
Fore
SplineSet
182 1616 m 1,0,-1
 88 1597 l 1,1,2
 69 875 69 875 69 559 c 2,3,-1
 69 49 l 2,4,5
 69 11 69 11 107 11 c 2,6,-1
 145 11 l 2,7,8
 182 11 182 11 182 49 c 2,9,-1
 182 313 l 2,10,11
 182 422 182 422 201 691 c 1,12,13
 182 691 182 691 182 710 c 1,14,-1
 201 710 l 1,15,-1
 182 842 l 1,16,-1
 182 918 l 1,17,-1
 201 1012 l 1,18,19
 182 1012 182 1012 182 1069 c 0,20,21
 182 1109 182 1109 201 1144 c 1,22,-1
 182 1182 l 1,23,24
 201 1281 201 1281 201 1352 c 2,25,-1
 201 1522 l 1,26,-1
 182 1616 l 1,0,-1
EndSplineSet
Validated: 9
EndChar

StartChar: braceright
Encoding: 125 125 95
Width: 1084
GlyphClass: 1
Flags: W
LayerCount: 2
Fore
SplineSet
108 1665 m 1,0,1
 144 1580 144 1580 183 1571 c 0,2,3
 400 1518 400 1518 466 1382 c 1,4,5
 592 963 592 963 655 948 c 1,6,-1
 655 891 l 1,7,8
 600 816 600 816 542 816 c 1,9,10
 429 596 429 596 429 495 c 0,11,12
 429 259 429 259 240 193 c 1,13,14
 207 193 207 193 51 79 c 1,15,-1
 51 41 l 1,16,-1
 70 4 l 1,17,18
 324 4 324 4 504 249 c 1,19,20
 591 778 591 778 693 778 c 1,21,22
 995 841 995 841 995 872 c 2,23,-1
 995 891 l 1,24,-1
 976 929 l 1,25,-1
 712 1023 l 1,26,27
 541 1646 541 1646 296 1646 c 1,28,-1
 164 1628 l 1,29,30
 164 1659 164 1659 127 1665 c 1,31,-1
 108 1665 l 1,0,1
EndSplineSet
Validated: 9
EndChar

StartChar: asciitilde
Encoding: 126 126 96
Width: 1481
GlyphClass: 1
Flags: W
LayerCount: 2
Fore
SplineSet
1268 963 m 1,0,1
 1268 923 1268 923 1287 888 c 1,2,3
 1212 548 1212 548 1004 548 c 0,4,5
 895 548 895 548 815 623 c 1,6,7
 584 926 584 926 532 926 c 2,8,-1
 400 926 l 2,9,10
 153 926 153 926 60 548 c 1,11,12
 60 531 60 531 79 491 c 1,13,-1
 173 510 l 1,14,15
 173 761 173 761 419 831 c 1,16,17
 491 831 491 831 570 774 c 1,18,19
 728 453 728 453 1023 453 c 2,20,-1
 1042 453 l 2,21,22
 1285 453 1285 453 1401 812 c 1,23,-1
 1382 926 l 1,24,-1
 1382 963 l 1,25,-1
 1268 963 l 1,0,1
EndSplineSet
Validated: 9
EndChar

StartChar: cent
Encoding: 162 162 97
Width: 971
GlyphClass: 1
Flags: W
LayerCount: 2
Fore
SplineSet
409 1147 m 0,1,2
 409 1128 409 1128 428 1090 c 1,3,-1
 390 995 l 1,4,5
 195 995 195 995 69 561 c 1,6,7
 69 304 69 304 447 221 c 1,8,-1
 447 32 l 1,9,10
 484 32 484 32 484 -24 c 1,11,-1
 522 -24 l 2,12,13
 579 -24 579 -24 579 240 c 1,14,15
 900 312 900 312 900 391 c 2,16,-1
 900 429 l 2,17,18
 900 461 900 461 862 467 c 1,19,-1
 843 467 l 1,20,21
 672 353 672 353 598 353 c 2,22,-1
 541 353 l 1,23,24
 522 782 522 782 522 920 c 1,25,26
 617 920 617 920 692 844 c 1,27,-1
 654 788 l 1,28,-1
 654 769 l 1,29,30
 704 769 704 769 749 731 c 1,31,-1
 787 731 l 1,32,-1
 805 807 l 1,33,34
 805 992 805 992 522 1052 c 1,35,36
 541 1268 541 1268 541 1373 c 0,37,38
 541 1405 541 1405 503 1411 c 1,39,0
 454 1411 454 1411 409 1147 c 0,1,2
390 901 m 2,41,-1
 409 901 l 1,42,-1
 409 599 l 1,43,-1
 428 505 l 1,44,45
 409 505 409 505 390 372 c 1,46,47
 182 372 182 372 182 599 c 1,48,40
 281 901 281 901 390 901 c 2,41,-1
EndSplineSet
Validated: 9
EndChar

StartChar: sterling
Encoding: 163 163 98
Width: 1707
GlyphClass: 1
Flags: W
LayerCount: 2
Fore
SplineSet
761 1376 m 1,1,2
 581 926 581 926 554 923 c 2,3,-1
 346 923 l 1,4,5
 233 872 233 872 233 847 c 2,6,-1
 233 828 l 1,7,-1
 251 790 l 1,8,-1
 440 809 l 1,9,-1
 497 809 l 1,10,-1
 535 790 l 1,11,12
 517 696 517 696 497 696 c 1,13,14
 443 293 443 293 102 38 c 1,15,16
 102 0 102 0 140 0 c 2,17,-1
 480 0 l 1,18,-1
 574 19 l 1,19,20
 574 0 574 0 593 0 c 0,21,22
 633 0 633 0 668 19 c 1,23,-1
 782 0 l 1,24,-1
 1065 0 l 2,25,26
 1127 0 1127 0 1235 19 c 1,27,28
 1260 0 1260 0 1367 0 c 2,29,-1
 1650 0 l 1,30,31
 1650 19 1650 19 1669 57 c 1,32,33
 1669 86 1669 86 1594 114 c 1,34,35
 1550 114 1550 114 1518 95 c 1,36,37
 1419 114 1419 114 1348 114 c 2,38,-1
 366 114 l 1,39,40
 516 450 516 450 535 450 c 1,41,42
 641 809 641 809 667 809 c 2,43,-1
 742 809 l 2,44,45
 899 809 899 809 1139 790 c 1,46,47
 1174 809 1174 809 1196 809 c 1,48,-1
 1233 734 l 1,49,-1
 1328 753 l 1,50,-1
 1328 828 l 1,51,52
 1290 875 1290 875 1290 904 c 1,53,54
 1106 923 1106 923 1007 923 c 2,55,-1
 686 923 l 1,56,57
 851 1527 851 1527 1233 1527 c 0,58,59
 1287 1527 1287 1527 1347 1489 c 1,60,61
 1347 1508 1347 1508 1365 1508 c 1,62,63
 1365 1546 1365 1546 1309 1546 c 1,64,-1
 1309 1565 l 1,65,-1
 1347 1565 l 1,66,-1
 1347 1602 l 1,67,68
 1330 1602 1330 1602 1290 1621 c 1,69,0
 964 1621 964 1621 761 1376 c 1,1,2
EndSplineSet
Validated: 9
EndChar

StartChar: currency
Encoding: 164 164 99
Width: 1197
GlyphClass: 1
Flags: W
LayerCount: 2
Fore
SplineSet
79 1096 m 1,0,-1
 79 1020 l 1,1,-1
 136 1020 l 1,2,3
 246 850 246 850 268 850 c 1,4,5
 211 672 211 672 211 624 c 2,6,-1
 211 510 l 2,7,8
 211 447 211 447 268 378 c 1,9,-1
 268 359 l 1,10,-1
 79 133 l 1,11,-1
 79 95 l 1,12,-1
 98 57 l 1,13,14
 205 57 205 57 343 284 c 1,15,16
 598 208 598 208 702 208 c 1,17,-1
 815 265 l 1,18,19
 980 76 980 76 1004 76 c 2,20,-1
 1023 76 l 2,21,22
 1061 76 1061 76 1061 114 c 2,23,-1
 1061 189 l 1,24,25
 1029 189 1029 189 910 340 c 1,26,27
 985 439 985 439 985 548 c 2,28,-1
 985 605 l 2,29,30
 985 702 985 702 948 831 c 1,31,32
 1136 1025 1136 1025 1136 1039 c 2,33,-1
 1136 1058 l 2,34,35
 1136 1090 1136 1090 1099 1096 c 1,36,-1
 1061 1096 l 1,37,-1
 891 926 l 1,38,-1
 834 926 l 1,39,40
 702 1039 702 1039 627 1039 c 2,41,-1
 570 1039 l 1,42,43
 381 1002 381 1002 381 907 c 1,44,45
 198 1114 198 1114 155 1114 c 1,46,-1
 79 1096 l 1,0,-1
627 926 m 1,48,-1
 683 926 l 1,49,50
 872 742 872 742 872 661 c 1,51,52
 854 416 854 416 797 416 c 1,53,54
 764 321 764 321 664 321 c 2,55,-1
 608 321 l 1,56,57
 324 384 324 384 324 586 c 0,58,47
 324 881 324 881 627 926 c 1,48,-1
EndSplineSet
Validated: 9
EndChar

StartChar: section
Encoding: 167 167 100
Width: 1197
GlyphClass: 1
Flags: W
LayerCount: 2
Fore
SplineSet
460 1560 m 1,0,1
 162 1434 162 1434 82 1201 c 1,2,3
 138 880 138 880 308 880 c 1,4,5
 63 694 63 694 63 483 c 2,6,-1
 63 370 l 1,7,8
 137 144 137 144 535 144 c 1,9,-1
 629 162 l 1,10,11
 629 144 629 144 648 144 c 0,12,13
 932 114 932 114 932 -102 c 2,14,-1
 932 -140 l 1,15,16
 902 -404 902 -404 554 -404 c 0,17,18
 396 -404 396 -404 252 -329 c 1,19,20
 195 -329 195 -329 195 -366 c 2,21,-1
 195 -423 l 1,22,23
 380 -498 380 -498 478 -498 c 0,24,25
 719 -498 719 -498 913 -404 c 1,26,27
 1045 -314 1045 -314 1045 -45 c 1,28,29
 997 200 997 200 837 200 c 1,30,-1
 837 238 l 1,31,32
 971 238 971 238 1120 521 c 1,33,34
 1120 622 1120 622 1102 691 c 1,35,36
 1102 884 1102 884 743 974 c 1,37,38
 417 956 417 956 403 937 c 1,39,40
 403 968 403 968 365 974 c 0,41,42
 195 1013 195 1013 195 1201 c 2,43,-1
 195 1220 l 1,44,45
 389 1465 389 1465 535 1465 c 2,46,-1
 648 1465 l 2,47,48
 718 1465 718 1465 818 1390 c 1,49,-1
 875 1390 l 1,50,-1
 875 1503 l 1,51,52
 760 1561 760 1561 592 1579 c 1,53,-1
 460 1560 l 1,0,1
705 842 m 1,54,-1
 743 861 l 1,55,56
 743 842 743 842 799 842 c 1,57,58
 1007 782 1007 782 1007 597 c 2,59,-1
 1007 559 l 2,60,61
 1007 329 1007 329 592 295 c 1,62,63
 592 313 592 313 573 313 c 1,64,-1
 535 295 l 1,65,66
 502 313 502 313 460 313 c 1,67,68
 403 285 403 285 403 257 c 1,69,70
 384 257 384 257 384 276 c 1,71,72
 177 276 177 276 157 502 c 1,73,-1
 214 653 l 1,74,75
 418 842 418 842 573 842 c 2,76,-1
 705 842 l 1,54,-1
EndSplineSet
Validated: 9
EndChar

StartChar: copyright
Encoding: 169 169 101
Width: 1764
GlyphClass: 1
Flags: W
LayerCount: 2
Fore
SplineSet
879 1553 m 1,0,1
 695 1553 695 1553 369 1308 c 1,2,3
 115 1066 115 1066 86 836 c 1,4,5
 86 742 86 742 105 571 c 1,6,7
 306 61 306 61 822 61 c 0,8,9
 876 61 876 61 955 80 c 1,10,11
 1315 125 1315 125 1483 326 c 1,12,13
 1623 501 1623 501 1710 968 c 1,14,15
 1476 1553 1476 1553 1162 1553 c 1,16,-1
 1125 1534 l 1,17,-1
 879 1553 l 1,0,1
1200 1440 m 1,19,20
 1351 1407 1351 1407 1351 1345 c 1,21,22
 1578 1082 1578 1082 1578 987 c 1,23,-1
 1559 854 l 1,24,25
 1578 854 1578 854 1578 836 c 1,26,27
 1546 836 1546 836 1540 798 c 1,28,-1
 1540 779 l 1,29,-1
 1559 741 l 1,30,31
 1481 482 1481 482 1389 420 c 1,32,33
 1389 245 1389 245 822 156 c 1,34,35
 435 156 435 156 218 571 c 1,36,-1
 218 647 l 1,37,-1
 199 836 l 1,38,39
 224 836 224 836 275 1024 c 1,40,41
 556 1383 556 1383 690 1383 c 1,42,43
 690 1360 690 1360 766 1345 c 1,44,18
 833 1394 833 1394 1200 1440 c 1,19,20
879 1119 m 2,45,46
 733 1119 733 1119 539 741 c 1,47,48
 575 439 575 439 917 439 c 1,49,50
 1103 479 1103 479 1219 552 c 1,51,52
 1219 587 1219 587 1181 647 c 1,53,54
 959 571 959 571 804 552 c 1,55,-1
 804 515 l 1,56,-1
 917 515 l 1,57,-1
 917 496 l 1,58,-1
 841 496 l 1,59,60
 747 510 747 510 747 552 c 1,61,-1
 785 552 l 1,62,-1
 785 590 l 1,63,64
 676 647 676 647 652 647 c 1,65,-1
 652 722 l 1,66,67
 685 909 685 909 898 1024 c 1,68,69
 946 1024 946 1024 1049 968 c 1,70,71
 1049 949 1049 949 1030 949 c 1,72,-1
 1049 854 l 1,73,-1
 1143 873 l 1,74,-1
 1143 949 l 2,75,76
 1143 1119 1143 1119 917 1119 c 2,77,-1
 879 1119 l 2,45,46
EndSplineSet
Validated: 9
EndChar

StartChar: registered
Encoding: 174 174 102
Width: 1802
GlyphClass: 1
Flags: W
LayerCount: 2
Fore
SplineSet
819 1598 m 0,1,2
 716 1598 716 1598 442 1428 c 1,3,4
 170 1162 170 1162 83 692 c 1,5,6
 121 607 121 607 121 522 c 1,7,8
 328 31 328 31 838 31 c 0,9,10
 1192 31 1192 31 1499 314 c 1,11,12
 1709 573 1709 573 1745 880 c 1,13,14
 1727 1085 1727 1085 1650 1220 c 1,15,16
 1510 1506 1510 1506 1178 1617 c 1,17,0
 961 1598 961 1598 819 1598 c 0,1,2
347 1145 m 1,19,20
 568 1432 568 1432 838 1504 c 1,21,22
 876 1460 876 1460 876 1428 c 1,23,-1
 1103 1504 l 1,24,25
 1443 1420 1443 1420 1443 1315 c 1,26,27
 1568 1315 1568 1315 1631 805 c 1,28,29
 1571 575 1571 575 1443 427 c 1,30,31
 1158 125 1158 125 876 125 c 0,32,33
 845 125 845 125 668 144 c 1,34,35
 215 294 215 294 215 748 c 0,36,18
 215 811 215 811 347 1145 c 1,19,20
876 1183 m 2,37,38
 855 1183 855 1183 725 1145 c 1,39,-1
 612 1145 l 1,40,-1
 593 1050 l 2,41,42
 593 1032 593 1032 612 994 c 1,43,-1
 593 956 l 1,44,-1
 612 918 l 1,45,-1
 593 880 l 1,46,-1
 612 843 l 1,47,-1
 593 843 l 1,48,49
 593 826 593 826 612 786 c 1,50,-1
 593 559 l 2,51,52
 593 541 593 541 612 503 c 1,53,-1
 706 522 l 1,54,-1
 706 673 l 2,55,56
 706 724 706 724 744 786 c 1,57,58
 896 717 896 717 1197 465 c 1,59,60
 1292 465 1292 465 1310 522 c 1,61,62
 1255 616 1255 616 1178 616 c 1,63,64
 985 767 985 767 952 767 c 1,65,-1
 952 805 l 1,66,-1
 989 805 l 1,67,68
 1165 877 1165 877 1216 1013 c 1,69,-1
 1216 1032 l 1,70,71
 1131 1183 1131 1183 1008 1183 c 2,72,-1
 876 1183 l 2,37,38
725 994 m 1,73,74
 803 1088 803 1088 970 1088 c 1,75,76
 1084 1070 1084 1070 1084 1032 c 2,77,-1
 1084 994 l 1,78,79
 1051 931 1051 931 857 862 c 1,80,-1
 782 880 l 1,81,-1
 744 862 l 1,82,83
 744 880 744 880 725 880 c 1,84,85
 725 921 725 921 744 956 c 1,86,-1
 725 994 l 1,73,74
EndSplineSet
Validated: 9
EndChar

StartChar: degree
Encoding: 176 176 103
Width: 782
GlyphClass: 1
Flags: W
LayerCount: 2
Fore
SplineSet
343 1643 m 2,0,1
 117 1643 117 1643 60 1322 c 1,2,3
 84 1190 84 1190 249 1058 c 1,4,-1
 343 1058 l 2,5,6
 433 1058 433 1058 475 1114 c 1,7,8
 606 1114 606 1114 702 1322 c 1,9,-1
 702 1473 l 1,10,11
 627 1643 627 1643 400 1643 c 2,12,-1
 343 1643 l 2,0,1
381 1549 m 0,14,15
 562 1549 562 1549 589 1416 c 1,16,17
 589 1186 589 1186 287 1152 c 1,18,19
 226 1176 226 1176 173 1322 c 1,20,13
 173 1549 173 1549 381 1549 c 0,14,15
EndSplineSet
Validated: 9
EndChar

StartChar: plusminus
Encoding: 177 177 104
Width: 1027
GlyphClass: 1
Flags: W
LayerCount: 2
Fore
SplineSet
481 1434 m 1,0,-1
 444 1415 l 1,1,-1
 463 1321 l 1,2,-1
 425 1321 l 1,3,-1
 444 1226 l 1,4,5
 444 1113 444 1113 179 1113 c 2,6,-1
 104 1113 l 1,7,8
 104 1093 104 1093 85 1056 c 1,9,-1
 123 1000 l 1,10,11
 354 1019 354 1019 387 1019 c 0,12,13
 409 1019 409 1019 444 1000 c 1,14,15
 444 981 444 981 425 981 c 1,16,-1
 444 754 l 1,17,-1
 444 716 l 1,18,-1
 500 716 l 1,19,20
 557 746 557 746 557 773 c 2,21,-1
 557 1000 l 2,22,23
 557 1031 557 1031 595 1037 c 1,24,-1
 614 1037 l 2,25,26
 763 1037 763 1037 953 1075 c 1,27,-1
 953 1113 l 2,28,29
 953 1145 953 1145 840 1188 c 1,30,31
 811 1188 811 1188 765 1151 c 1,32,-1
 651 1151 l 1,33,-1
 557 1170 l 1,34,-1
 557 1283 l 1,35,-1
 538 1321 l 1,36,37
 557 1321 557 1321 557 1340 c 2,38,-1
 557 1377 l 1,39,40
 527 1434 527 1434 500 1434 c 2,41,-1
 481 1434 l 1,0,-1
98 510 m 2,42,43
 66 510 66 510 60 472 c 1,44,-1
 60 453 l 2,45,46
 60 417 60 417 211 397 c 1,47,-1
 324 416 l 1,48,-1
 759 416 l 1,49,-1
 853 435 l 1,50,-1
 853 491 l 1,51,-1
 759 510 l 1,52,-1
 98 510 l 2,42,43
EndSplineSet
Validated: 9
EndChar

StartChar: paragraph
Encoding: 182 182 105
Width: 1235
GlyphClass: 1
Flags: W
LayerCount: 2
Fore
SplineSet
1080 1681 m 1,0,-1
 1023 1643 l 1,1,-1
 608 1643 l 1,2,3
 226 1552 226 1552 211 1492 c 1,4,5
 108 1492 108 1492 60 1133 c 1,6,7
 143 987 143 987 154 982 c 1,8,9
 154 898 154 898 664 850 c 1,10,-1
 683 850 l 1,11,-1
 713 345 l 1,12,13
 713 240 713 240 694 24 c 1,14,-1
 770 -52 l 1,15,-1
 808 -52 l 1,16,-1
 789 62 l 1,17,-1
 826 307 l 1,18,-1
 808 383 l 1,19,20
 796 1178 796 1178 815 1398 c 1,21,22
 796 1398 796 1398 796 1454 c 1,23,24
 815 1491 815 1491 815 1511 c 1,25,26
 796 1511 796 1511 796 1530 c 1,27,28
 815 1530 815 1530 815 1549 c 1,29,30
 999 1524 999 1524 1042 1511 c 1,31,-1
 1023 1473 l 1,32,-1
 1023 1077 l 1,33,-1
 1004 944 l 1,34,35
 1023 944 1023 944 1023 926 c 2,36,-1
 1004 812 l 1,37,-1
 1034 288 l 1,38,-1
 1053 194 l 1,39,40
 1034 194 1034 194 1034 137 c 2,41,-1
 1034 24 l 1,42,-1
 1110 24 l 2,43,44
 1148 24 1148 24 1166 175 c 1,45,-1
 1147 213 l 1,46,47
 1118 650 1118 650 1136 1322 c 1,48,-1
 1155 1398 l 1,49,50
 1136 1398 1136 1398 1136 1416 c 0,51,52
 1155 1543 1155 1543 1155 1624 c 1,53,54
 1127 1681 1127 1681 1099 1681 c 2,55,-1
 1080 1681 l 1,0,-1
EndSplineSet
Validated: 41
EndChar

StartChar: quoteleft
Encoding: 8216 8216 106
Width: 385
GlyphClass: 1
Flags: W
LayerCount: 2
Fore
SplineSet
154 1357 m 1,0,1
 210 1394 210 1394 305 1678 c 1,2,-1
 286 1715 l 1,3,-1
 267 1715 l 2,4,5
 227 1715 227 1715 60 1413 c 1,6,-1
 60 1357 l 1,7,-1
 154 1357 l 1,0,1
EndSplineSet
Validated: 9
EndChar

StartChar: quoteright
Encoding: 8217 8217 107
Width: 385
GlyphClass: 1
Flags: W
LayerCount: 2
Fore
SplineSet
211 1715 m 1,0,1
 156 1679 156 1679 60 1394 c 1,2,-1
 79 1357 l 1,3,-1
 98 1357 l 2,4,5
 138 1357 138 1357 305 1659 c 1,6,-1
 305 1715 l 1,7,-1
 211 1715 l 1,0,1
EndSplineSet
Validated: 9
EndChar

StartChar: quotedblleft
Encoding: 8220 8220 108
Width: 728
GlyphClass: 1
Flags: W
LayerCount: 2
Fore
SplineSet
154 1357 m 1,0,1
 210 1394 210 1394 305 1678 c 1,2,-1
 286 1715 l 1,3,-1
 267 1715 l 2,4,5
 227 1715 227 1715 60 1413 c 1,6,-1
 60 1357 l 1,7,-1
 154 1357 l 1,0,1
497 1357 m 1,8,9
 553 1394 553 1394 648 1678 c 1,10,-1
 629 1715 l 1,11,-1
 610 1715 l 2,12,13
 570 1715 570 1715 403 1413 c 1,14,-1
 403 1357 l 1,15,-1
 497 1357 l 1,8,9
EndSplineSet
Validated: 9
EndChar

StartChar: quotedblright
Encoding: 8221 8221 109
Width: 728
GlyphClass: 1
Flags: W
LayerCount: 2
Fore
SplineSet
211 1715 m 1,0,1
 156 1679 156 1679 60 1394 c 1,2,-1
 79 1357 l 1,3,-1
 98 1357 l 2,4,5
 138 1357 138 1357 305 1659 c 1,6,-1
 305 1715 l 1,7,-1
 211 1715 l 1,0,1
554 1715 m 1,8,9
 499 1679 499 1679 403 1394 c 1,10,-1
 422 1357 l 1,11,-1
 441 1357 l 2,12,13
 481 1357 481 1357 648 1659 c 1,14,-1
 648 1715 l 1,15,-1
 554 1715 l 1,8,9
EndSplineSet
Validated: 9
EndChar

StartChar: dagger
Encoding: 8224 8224 110
Width: 1329
GlyphClass: 1
Flags: W
LayerCount: 2
Fore
SplineSet
664 1737 m 2,0,1
 563 1737 563 1737 551 1643 c 1,2,3
 601 1308 601 1308 601 1172 c 2,4,-1
 601 1153 l 1,5,6
 322 1153 322 1153 223 1115 c 1,7,8
 223 1134 223 1134 204 1134 c 2,9,-1
 110 1134 l 2,10,11
 78 1134 78 1134 72 1096 c 1,12,-1
 72 1039 l 1,13,14
 93 1039 93 1039 129 1021 c 1,15,16
 151 1021 151 1021 506 1058 c 1,17,-1
 601 1039 l 1,18,-1
 601 870 l 1,19,-1
 572 99 l 2,20,21
 572 42 572 42 610 42 c 2,22,-1
 667 42 l 1,23,-1
 704 61 l 1,24,25
 704 83 704 83 685 118 c 1,26,27
 714 791 714 791 714 945 c 2,28,-1
 714 1058 l 1,29,-1
 790 1058 l 2,30,31
 887 1058 887 1058 1243 1096 c 1,32,-1
 1262 1096 l 1,33,-1
 1262 1153 l 2,34,35
 1262 1200 1262 1200 1073 1209 c 0,36,37
 1021 1209 1021 1209 959 1172 c 1,38,-1
 922 1191 l 1,39,40
 860 1153 860 1153 808 1153 c 2,41,-1
 752 1153 l 2,42,43
 720 1153 720 1153 714 1191 c 1,44,-1
 714 1323 l 1,45,-1
 683 1511 l 1,46,47
 702 1511 702 1511 702 1530 c 1,48,-1
 683 1568 l 1,49,-1
 702 1662 l 1,50,-1
 683 1737 l 1,51,-1
 664 1737 l 2,0,1
EndSplineSet
Validated: 9
EndChar

StartChar: daggerdbl
Encoding: 8225 8225 111
Width: 1273
GlyphClass: 1
Flags: W
LayerCount: 2
Fore
SplineSet
625 1670 m 1,0,-1
 606 1575 l 1,1,-1
 625 1538 l 1,2,3
 593 1538 593 1538 587 1443 c 1,4,-1
 587 1198 l 1,5,-1
 568 1160 l 1,6,7
 77 1160 77 1160 77 1085 c 2,8,-1
 77 1066 l 2,9,10
 77 1038 77 1038 153 1009 c 1,11,12
 275 1051 275 1051 568 1066 c 1,13,-1
 568 631 l 1,14,-1
 266 594 l 1,15,16
 242 612 242 612 134 612 c 0,17,18
 102 612 102 612 96 575 c 1,19,-1
 96 556 l 2,20,21
 96 523 96 523 190 499 c 1,22,23
 488 518 488 518 530 518 c 0,24,25
 552 518 552 518 587 499 c 1,26,27
 587 419 587 419 568 27 c 0,28,29
 568 -30 568 -30 606 -30 c 2,30,-1
 625 -30 l 2,31,32
 681 -30 681 -30 681 367 c 2,33,-1
 681 518 l 1,34,-1
 1210 518 l 1,35,-1
 1210 594 l 1,36,37
 998 631 998 631 908 631 c 2,38,-1
 662 631 l 1,39,-1
 681 726 l 1,40,-1
 681 1047 l 2,41,42
 681 1079 681 1079 719 1085 c 1,43,-1
 832 1085 l 2,44,45
 1172 1085 1172 1085 1172 1160 c 0,46,47
 1172 1192 1172 1192 1134 1198 c 1,48,-1
 1059 1198 l 1,49,-1
 870 1179 l 1,50,51
 870 1201 870 1201 851 1236 c 1,52,53
 813 1236 813 1236 813 1179 c 1,54,-1
 700 1179 l 1,55,-1
 700 1368 l 1,56,-1
 681 1500 l 1,57,58
 707 1500 707 1500 719 1651 c 1,59,-1
 625 1670 l 1,0,-1
EndSplineSet
Validated: 9
EndChar

StartChar: bullet
Encoding: 8226 8226 112
Width: 669
GlyphClass: 1
Flags: W
LayerCount: 2
Fore
SplineSet
343 850 m 2,0,1
 287 850 287 850 287 831 c 1,2,3
 114 831 114 831 60 586 c 1,4,5
 93 378 93 378 230 378 c 1,6,7
 589 406 589 406 589 623 c 2,8,-1
 589 642 l 2,9,10
 589 756 589 756 419 850 c 1,11,-1
 343 850 l 2,0,1
EndSplineSet
Validated: 9
EndChar

StartChar: Euro
Encoding: 8364 8364 113
Width: 1613
GlyphClass: 1
Flags: W
LayerCount: 2
Fore
SplineSet
1007 1341 m 2,0,1
 799 1341 799 1341 554 1096 c 1,2,3
 554 907 554 907 63 907 c 1,4,-1
 63 831 l 1,5,6
 85 831 85 831 120 812 c 1,7,-1
 384 831 l 1,8,-1
 422 812 l 1,9,-1
 365 718 l 1,10,11
 365 701 365 701 384 661 c 1,12,13
 365 623 365 623 365 605 c 1,14,-1
 82 605 l 2,15,16
 50 605 50 605 44 567 c 1,17,-1
 44 510 l 1,18,19
 81 510 81 510 138 416 c 1,20,-1
 214 416 l 1,21,-1
 403 435 l 1,22,-1
 459 284 l 1,23,24
 718 40 718 40 1007 0 c 1,25,26
 1083 0 1083 0 1139 38 c 1,27,-1
 1139 19 l 1,28,29
 1517 100 1517 100 1517 189 c 2,30,-1
 1517 208 l 1,31,-1
 1498 303 l 1,32,-1
 1441 303 l 1,33,34
 1409 133 1409 133 1101 133 c 2,35,-1
 1026 133 l 1,36,-1
 856 170 l 2,37,38
 692 209 692 209 516 416 c 1,39,40
 516 448 516 448 554 454 c 1,41,-1
 913 454 l 2,42,43
 940 456 940 456 988 548 c 1,44,-1
 988 605 l 1,45,-1
 913 605 l 1,46,-1
 913 567 l 1,47,-1
 856 605 l 1,48,-1
 516 605 l 2,49,50
 484 605 484 605 478 642 c 1,51,-1
 478 737 l 1,52,-1
 554 850 l 1,53,54
 597 850 597 850 629 831 c 1,55,56
 1026 843 1026 843 1026 907 c 2,57,-1
 1026 926 l 2,58,59
 1026 959 1026 959 988 963 c 1,60,-1
 931 963 l 2,61,62
 837 963 837 963 648 945 c 1,63,-1
 648 982 l 1,64,-1
 667 982 l 1,65,66
 897 1233 897 1233 988 1247 c 1,67,68
 1264 1247 1264 1247 1404 1077 c 1,69,-1
 1385 1039 l 1,70,-1
 1385 1020 l 1,71,-1
 1460 1020 l 1,72,-1
 1479 1133 l 1,73,74
 1347 1341 1347 1341 1083 1341 c 2,75,-1
 1007 1341 l 2,0,1
EndSplineSet
Validated: 9
EndChar

StartChar: trademark
Encoding: 8482 8482 114
Width: 1273
GlyphClass: 1
Flags: W
LayerCount: 2
Fore
SplineSet
966 1416 m 1,1,-1
 947 1416 l 1,2,3
 779 1605 779 1605 759 1605 c 2,4,-1
 702 1605 l 1,5,-1
 664 1586 l 1,6,7
 664 1546 664 1546 683 1511 c 1,8,9
 665 1499 665 1499 645 1171 c 1,10,-1
 702 1171 l 1,11,12
 759 1183 759 1183 759 1322 c 2,13,-1
 759 1416 l 1,14,-1
 778 1416 l 1,15,-1
 929 1265 l 1,16,-1
 966 1265 l 2,17,18
 996 1265 996 1265 1023 1341 c 1,19,-1
 1061 1322 l 1,20,21
 1061 1303 1061 1303 1042 1303 c 1,22,23
 1042 1268 1042 1268 1080 1171 c 1,24,-1
 1174 1190 l 1,25,-1
 1174 1284 l 1,26,-1
 1193 1416 l 1,27,28
 1176 1416 1176 1416 1136 1492 c 1,29,-1
 1136 1511 l 1,30,-1
 1155 1605 l 1,31,32
 1136 1605 1136 1605 1136 1624 c 1,33,0
 1017 1624 1017 1624 966 1416 c 1,1,-1
173 1586 m 2,34,35
 79 1586 79 1586 60 1530 c 1,36,-1
 60 1511 l 2,37,38
 60 1473 60 1473 98 1473 c 2,39,-1
 268 1473 l 1,40,-1
 230 1209 l 1,41,-1
 268 1190 l 1,42,-1
 305 1190 l 2,43,44
 337 1190 337 1190 381 1492 c 1,45,46
 403 1492 403 1492 438 1473 c 1,47,-1
 513 1492 l 1,48,-1
 513 1549 l 1,49,50
 486 1549 486 1549 438 1586 c 1,51,-1
 173 1586 l 2,34,35
EndSplineSet
Validated: 9
EndChar

StartChar: eacute
Encoding: 233 233 115
Width: 1160
Flags: W
LayerCount: 2
Fore
SplineSet
553 1539 m 4,0,1
 413 1474 413 1474 362 1442 c 4,2,3
 258 1375 258 1375 221 1291 c 5,4,5
 237 1258 237 1258 309 1251 c 5,6,7
 349 1277 349 1277 435 1325 c 132,-1,8
 521 1373 521 1373 588.5 1416 c 132,-1,9
 656 1459 656 1459 693 1499 c 5,10,11
 696 1509 696 1509 688 1520 c 132,-1,12
 680 1531 680 1531 669 1535 c 5,13,-1
 553 1543 l 1029,14,-1
532 1152 m 2,15,16
 144 1152 144 1152 60 680 c 1,17,-1
 60 510 l 1,18,-1
 92 290 l 1,19,20
 326 -12 326 -12 564 -12 c 0,21,22
 933 -12 933 -12 1074 177 c 1,23,-1
 1074 271 l 1,24,25
 1057 271 1057 271 1017 290 c 1,26,27
 818 82 818 82 639 82 c 1,28,29
 280 170 280 170 173 529 c 1,30,-1
 173 548 l 1,31,32
 267 568 267 568 1061 586 c 1,33,34
 1061 604 1061 604 1080 642 c 1,35,36
 1042 694 1042 694 1042 812 c 0,37,38
 1042 1083 1042 1083 589 1152 c 1,39,-1
 532 1152 l 2,15,16
438 1039 m 2,40,-1
 532 1039 l 1,41,42
 742 1030 742 1030 778 982 c 1,43,44
 917 982 917 982 929 718 c 1,45,-1
 891 699 l 1,46,-1
 834 699 l 2,47,48
 753 699 753 699 626 680 c 1,49,-1
 589 699 l 1,50,-1
 173 661 l 1,51,52
 245 1039 245 1039 438 1039 c 2,40,-1
EndSplineSet
Validated: 11
EndChar

StartChar: egrave
Encoding: 232 232 116
Width: 1160
Flags: W
LayerCount: 2
Fore
SplineSet
420 1520 m 1,0,-1
 396 1524 l 1,1,2
 364 1523 364 1523 368 1476 c 1,3,4
 424 1373 424 1373 545 1309.5 c 0,5,6
 689 1234 689 1234 794 1232 c 4,7,8
 804 1232 804 1232 817 1242.5 c 0,9,10
 826 1250 826 1250 825.5 1259 c 128,-1,11
 825 1268 825 1268 788 1311 c 128,-1,12
 751 1354 751 1354 655.5 1413 c 128,-1,13
 560 1472 560 1472 464 1492 c 1,14,-1
 408 1520 l 1025,15,-1
532 1152 m 2,16,17
 144 1152 144 1152 60 680 c 1,18,-1
 60 510 l 1,19,-1
 92 290 l 1,20,21
 326 -12 326 -12 564 -12 c 0,22,23
 933 -12 933 -12 1074 177 c 1,24,-1
 1074 271 l 1,25,26
 1057 271 1057 271 1017 290 c 1,27,28
 818 82 818 82 639 82 c 1,29,30
 280 170 280 170 173 529 c 1,31,-1
 173 548 l 1,32,33
 267 568 267 568 1061 586 c 1,34,35
 1061 604 1061 604 1080 642 c 1,36,37
 1042 694 1042 694 1042 812 c 0,38,39
 1042 1083 1042 1083 589 1152 c 1,40,-1
 532 1152 l 2,16,17
438 1039 m 2,41,-1
 532 1039 l 1,42,43
 742 1030 742 1030 778 982 c 1,44,45
 917 982 917 982 929 718 c 1,46,-1
 891 699 l 1,47,-1
 834 699 l 2,48,49
 753 699 753 699 626 680 c 1,50,-1
 589 699 l 1,51,-1
 173 661 l 1,52,53
 245 1039 245 1039 438 1039 c 2,41,-1
EndSplineSet
Validated: 524299
EndChar

StartChar: ecircumflex
Encoding: 234 234 117
Width: 1160
Flags: W
LayerCount: 2
Fore
SplineSet
532 1152 m 2,0,1
 144 1152 144 1152 60 680 c 1,2,-1
 60 510 l 1,3,-1
 92 290 l 1,4,5
 326 -12 326 -12 564 -12 c 0,6,7
 933 -12 933 -12 1074 177 c 1,8,-1
 1074 271 l 1,9,10
 1057 271 1057 271 1017 290 c 1,11,12
 818 82 818 82 639 82 c 1,13,14
 280 170 280 170 173 529 c 1,15,-1
 173 548 l 1,16,17
 267 568 267 568 1061 586 c 1,18,19
 1061 604 1061 604 1080 642 c 1,20,21
 1042 694 1042 694 1042 812 c 0,22,23
 1042 1083 1042 1083 589 1152 c 1,24,-1
 532 1152 l 2,0,1
173 661 m 1,25,26
 245 1039 245 1039 438 1039 c 2,27,-1
 532 1039 l 1,28,29
 742 1030 742 1030 778 982 c 1,30,31
 917 982 917 982 929 718 c 1,32,-1
 891 699 l 1,33,-1
 834 699 l 2,34,35
 753 699 753 699 626 680 c 1,36,-1
 589 699 l 1,37,-1
 173 661 l 1,25,26
EndSplineSet
Validated: 9
EndChar

StartChar: edieresis
Encoding: 235 235 118
Width: 1160
Flags: W
LayerCount: 2
Fore
SplineSet
532 1152 m 2,0,1
 144 1152 144 1152 60 680 c 1,2,-1
 60 510 l 1,3,-1
 92 290 l 1,4,5
 326 -12 326 -12 564 -12 c 0,6,7
 933 -12 933 -12 1074 177 c 1,8,-1
 1074 271 l 1,9,10
 1057 271 1057 271 1017 290 c 1,11,12
 818 82 818 82 639 82 c 1,13,14
 280 170 280 170 173 529 c 1,15,-1
 173 548 l 1,16,17
 267 568 267 568 1061 586 c 1,18,19
 1061 604 1061 604 1080 642 c 1,20,21
 1042 694 1042 694 1042 812 c 0,22,23
 1042 1083 1042 1083 589 1152 c 1,24,-1
 532 1152 l 2,0,1
173 661 m 1,25,26
 245 1039 245 1039 438 1039 c 2,27,-1
 532 1039 l 1,28,29
 742 1030 742 1030 778 982 c 1,30,31
 917 982 917 982 929 718 c 1,32,-1
 891 699 l 1,33,-1
 834 699 l 2,34,35
 753 699 753 699 626 680 c 1,36,-1
 589 699 l 1,37,-1
 173 661 l 1,25,26
EndSplineSet
Validated: 9
EndChar

StartChar: aacute
Encoding: 225 225 119
Width: 1254
Flags: W
LayerCount: 2
Fore
SplineSet
618 1153 m 1,0,1
 271 1114 271 1114 56 584 c 1,2,3
 65 348 65 348 102 262 c 1,4,5
 242 -2 242 -2 479 -2 c 1,6,7
 856 132 856 132 1000 509 c 1,8,9
 1047 377 1047 377 1084 17 c 1,10,-1
 1159 17 l 1,11,-1
 1159 36 l 1,12,-1
 1140 74 l 1,13,-1
 1178 92 l 1,14,15
 1171 565 1171 565 1132 565 c 1,16,17
 1129 1031 1129 1031 770 1153 c 1,18,-1
 618 1153 l 1,0,1
694 1040 m 2,20,-1
 713 1040 l 1,21,22
 883 1010 883 1010 883 889 c 0,23,24
 883 851 883 851 845 851 c 1,25,-1
 887 528 l 1,26,27
 722 154 722 154 498 111 c 1,28,29
 169 312 169 312 169 584 c 1,30,19
 336 1040 336 1040 694 1040 c 2,20,-1
EndSplineSet
Validated: 9
EndChar

StartChar: agrave
Encoding: 224 224 120
Width: 1254
Flags: W
LayerCount: 2
Fore
SplineSet
569 1565 m 132,-1,1
 531 1575 531 1575 491.563110888 1592.14647353 c 132,-1,2
 452.126221775 1609.29294705 452.126221775 1609.29294705 437.063110888 1612.14647353 c 132,-1,3
 422 1615 422 1615 417.5 1617.5 c 132,-1,4
 413 1620 413 1620 397 1621 c 132,-1,5
 381 1622 381 1622 361.5 1602.5 c 132,-1,6
 342 1583 342 1583 348 1556 c 5,7,8
 501 1327 501 1327 924 1247 c 5,9,10
 957 1249 957 1249 952.5 1282.5 c 132,-1,11
 948 1316 948 1316 951 1331 c 5,12,13
 908 1412 908 1412 827.006629962 1462.10843915 c 4,14,15
 746 1512 746 1512 676.5 1533.5 c 132,-1,0
 607 1555 607 1555 569 1565 c 132,-1,1
1159 17 m 1,16,-1
 1159 36 l 1,17,-1
 1140 74 l 1,18,-1
 1178 92 l 1,19,20
 1171 565 1171 565 1132 565 c 1,21,22
 1129 1031 1129 1031 770 1153 c 1,23,-1
 618 1153 l 1,24,25
 271 1114 271 1114 56 584 c 1,26,27
 65 348 65 348 102 262 c 1,28,29
 242 -2 242 -2 479 -2 c 1,30,31
 856 132 856 132 1000 509 c 1,32,33
 1047 377 1047 377 1084 17 c 1,34,-1
 1159 17 l 1,16,-1
694 1040 m 2,35,-1
 713 1040 l 1,36,37
 883 1010 883 1010 883 889 c 0,38,39
 883 851 883 851 845 851 c 1,40,-1
 887 528 l 1,41,42
 722 154 722 154 498 111 c 1,43,44
 169 312 169 312 169 584 c 1,45,46
 336 1040 336 1040 694 1040 c 2,35,-1
EndSplineSet
Validated: 524297
EndChar

StartChar: acircumflex
Encoding: 226 226 121
Width: 1254
Flags: W
LayerCount: 2
Fore
SplineSet
618 1153 m 1,0,1
 271 1114 271 1114 56 584 c 1,2,3
 65 348 65 348 102 262 c 1,4,5
 242 -2 242 -2 479 -2 c 1,6,7
 856 132 856 132 1000 509 c 1,8,9
 1047 377 1047 377 1084 17 c 1,10,-1
 1159 17 l 1,11,-1
 1159 36 l 1,12,-1
 1140 74 l 1,13,-1
 1178 92 l 1,14,15
 1171 565 1171 565 1132 565 c 1,16,17
 1129 1031 1129 1031 770 1153 c 1,18,-1
 618 1153 l 1,0,1
694 1040 m 2,20,-1
 713 1040 l 1,21,22
 883 1010 883 1010 883 889 c 0,23,24
 883 851 883 851 845 851 c 1,25,-1
 887 528 l 1,26,27
 722 154 722 154 498 111 c 1,28,29
 169 312 169 312 169 584 c 1,30,19
 336 1040 336 1040 694 1040 c 2,20,-1
EndSplineSet
Validated: 9
EndChar

StartChar: atilde
Encoding: 227 227 122
Width: 1254
Flags: W
LayerCount: 2
Fore
SplineSet
618 1153 m 1,0,1
 271 1114 271 1114 56 584 c 1,2,3
 65 348 65 348 102 262 c 1,4,5
 242 -2 242 -2 479 -2 c 1,6,7
 856 132 856 132 1000 509 c 1,8,9
 1047 377 1047 377 1084 17 c 1,10,-1
 1159 17 l 1,11,-1
 1159 36 l 1,12,-1
 1140 74 l 1,13,-1
 1178 92 l 1,14,15
 1171 565 1171 565 1132 565 c 1,16,17
 1129 1031 1129 1031 770 1153 c 1,18,-1
 618 1153 l 1,0,1
694 1040 m 2,20,-1
 713 1040 l 1,21,22
 883 1010 883 1010 883 889 c 0,23,24
 883 851 883 851 845 851 c 1,25,-1
 887 528 l 1,26,27
 722 154 722 154 498 111 c 1,28,29
 169 312 169 312 169 584 c 1,30,19
 336 1040 336 1040 694 1040 c 2,20,-1
EndSplineSet
Validated: 9
EndChar

StartChar: ebreve
Encoding: 277 277 123
Width: 1160
Flags: W
LayerCount: 2
Fore
SplineSet
532 1152 m 2,0,1
 144 1152 144 1152 60 680 c 1,2,-1
 60 510 l 1,3,-1
 92 290 l 1,4,5
 326 -12 326 -12 564 -12 c 0,6,7
 933 -12 933 -12 1074 177 c 1,8,-1
 1074 271 l 1,9,10
 1057 271 1057 271 1017 290 c 1,11,12
 818 82 818 82 639 82 c 1,13,14
 280 170 280 170 173 529 c 1,15,-1
 173 548 l 1,16,17
 267 568 267 568 1061 586 c 1,18,19
 1061 604 1061 604 1080 642 c 1,20,21
 1042 694 1042 694 1042 812 c 0,22,23
 1042 1083 1042 1083 589 1152 c 1,24,-1
 532 1152 l 2,0,1
173 661 m 1,25,26
 245 1039 245 1039 438 1039 c 2,27,-1
 532 1039 l 1,28,29
 742 1030 742 1030 778 982 c 1,30,31
 917 982 917 982 929 718 c 1,32,-1
 891 699 l 1,33,-1
 834 699 l 2,34,35
 753 699 753 699 626 680 c 1,36,-1
 589 699 l 1,37,-1
 173 661 l 1,25,26
EndSplineSet
Validated: 9
EndChar

StartChar: emacron
Encoding: 275 275 124
Width: 1160
Flags: W
LayerCount: 2
Fore
SplineSet
532 1152 m 2,0,1
 144 1152 144 1152 60 680 c 1,2,-1
 60 510 l 1,3,-1
 92 290 l 1,4,5
 326 -12 326 -12 564 -12 c 0,6,7
 933 -12 933 -12 1074 177 c 1,8,-1
 1074 271 l 1,9,10
 1057 271 1057 271 1017 290 c 1,11,12
 818 82 818 82 639 82 c 1,13,14
 280 170 280 170 173 529 c 1,15,-1
 173 548 l 1,16,17
 267 568 267 568 1061 586 c 1,18,19
 1061 604 1061 604 1080 642 c 1,20,21
 1042 694 1042 694 1042 812 c 0,22,23
 1042 1083 1042 1083 589 1152 c 1,24,-1
 532 1152 l 2,0,1
173 661 m 1,25,26
 245 1039 245 1039 438 1039 c 2,27,-1
 532 1039 l 1,28,29
 742 1030 742 1030 778 982 c 1,30,31
 917 982 917 982 929 718 c 1,32,-1
 891 699 l 1,33,-1
 834 699 l 2,34,35
 753 699 753 699 626 680 c 1,36,-1
 589 699 l 1,37,-1
 173 661 l 1,25,26
EndSplineSet
Validated: 9
EndChar

StartChar: ccedilla
Encoding: 231 231 125
Width: 1009
Flags: W
LayerCount: 2
Fore
SplineSet
324 1077 m 1,1,2
 104 775 104 775 56 528 c 1,3,4
 59 93 59 93 415 18 c 1,5,-1
 509 18 l 1,6,7
 868 93 868 93 868 170 c 2,8,-1
 868 207 l 1,9,-1
 849 245 l 1,10,-1
 566 132 l 1,11,-1
 453 132 l 1,12,13
 188 194 188 194 188 377 c 0,14,15
 192 1039 192 1039 608 1039 c 0,16,17
 721 1039 721 1039 891 888 c 1,18,-1
 929 888 l 1,19,-1
 929 926 l 1,20,-1
 872 926 l 1,21,-1
 891 963 l 1,22,23
 891 1092 891 1092 664 1152 c 1,24,0
 458 1134 458 1134 324 1077 c 1,1,2
EndSplineSet
Validated: 9
EndChar

StartChar: ccircumflex
Encoding: 265 265 126
Width: 1009
Flags: W
LayerCount: 2
Fore
SplineSet
324 1077 m 1,1,2
 104 775 104 775 56 528 c 1,3,4
 59 93 59 93 415 18 c 1,5,-1
 509 18 l 1,6,7
 868 93 868 93 868 170 c 2,8,-1
 868 207 l 1,9,-1
 849 245 l 1,10,-1
 566 132 l 1,11,-1
 453 132 l 1,12,13
 188 194 188 194 188 377 c 0,14,15
 192 1039 192 1039 608 1039 c 0,16,17
 721 1039 721 1039 891 888 c 1,18,-1
 929 888 l 1,19,-1
 929 926 l 1,20,-1
 872 926 l 1,21,-1
 891 963 l 1,22,23
 891 1092 891 1092 664 1152 c 1,24,0
 458 1134 458 1134 324 1077 c 1,1,2
EndSplineSet
Validated: 9
EndChar

StartChar: igrave
Encoding: 236 236 127
Width: 366
Flags: W
LayerCount: 2
Fore
SplineSet
182 1632 m 2,0,1
 119 1632 119 1632 50 1575 c 1,2,3
 50 1475 50 1475 126 1443 c 1,4,-1
 201 1443 l 1,5,6
 277 1489 277 1489 277 1518 c 2,7,-1
 277 1556 l 1,8,9
 232 1632 232 1632 201 1632 c 2,10,-1
 182 1632 l 2,0,1
121 1171 m 1,11,12
 102 961 102 961 83 697 c 1,13,14
 102 358 102 358 102 262 c 1,15,16
 83 88 83 88 83 73 c 1,17,18
 125 17 125 17 140 17 c 2,19,-1
 177 17 l 1,20,-1
 234 55 l 1,21,22
 234 126 234 126 215 225 c 1,23,-1
 234 300 l 1,24,25
 216 468 216 468 196 508 c 1,26,-1
 215 508 l 1,27,28
 177 1004 177 1004 177 1096 c 2,29,-1
 177 1134 l 2,30,31
 177 1165 177 1165 139 1171 c 1,32,-1
 121 1171 l 1,11,12
EndSplineSet
Validated: 9
EndChar

StartChar: iacute
Encoding: 237 237 128
Width: 366
Flags: W
LayerCount: 2
Fore
SplineSet
182 1632 m 2,0,1
 119 1632 119 1632 50 1575 c 1,2,3
 50 1475 50 1475 126 1443 c 1,4,-1
 201 1443 l 1,5,6
 277 1489 277 1489 277 1518 c 2,7,-1
 277 1556 l 1,8,9
 232 1632 232 1632 201 1632 c 2,10,-1
 182 1632 l 2,0,1
121 1171 m 1,11,12
 102 961 102 961 83 697 c 1,13,14
 102 358 102 358 102 262 c 1,15,16
 83 88 83 88 83 73 c 1,17,18
 125 17 125 17 140 17 c 2,19,-1
 177 17 l 1,20,-1
 234 55 l 1,21,22
 234 126 234 126 215 225 c 1,23,-1
 234 300 l 1,24,25
 216 468 216 468 196 508 c 1,26,-1
 215 508 l 1,27,28
 177 1004 177 1004 177 1096 c 2,29,-1
 177 1134 l 2,30,31
 177 1165 177 1165 139 1171 c 1,32,-1
 121 1171 l 1,11,12
EndSplineSet
Validated: 9
EndChar

StartChar: icircumflex
Encoding: 238 238 129
Width: 366
Flags: W
LayerCount: 2
Fore
SplineSet
182 1632 m 2,0,1
 119 1632 119 1632 50 1575 c 1,2,3
 50 1475 50 1475 126 1443 c 1,4,-1
 201 1443 l 1,5,6
 277 1489 277 1489 277 1518 c 2,7,-1
 277 1556 l 1,8,9
 232 1632 232 1632 201 1632 c 2,10,-1
 182 1632 l 2,0,1
121 1171 m 1,11,12
 102 961 102 961 83 697 c 1,13,14
 102 358 102 358 102 262 c 1,15,16
 83 88 83 88 83 73 c 1,17,18
 125 17 125 17 140 17 c 2,19,-1
 177 17 l 1,20,-1
 234 55 l 1,21,22
 234 126 234 126 215 225 c 1,23,-1
 234 300 l 1,24,25
 216 468 216 468 196 508 c 1,26,-1
 215 508 l 1,27,28
 177 1004 177 1004 177 1096 c 2,29,-1
 177 1134 l 2,30,31
 177 1165 177 1165 139 1171 c 1,32,-1
 121 1171 l 1,11,12
EndSplineSet
Validated: 9
EndChar

StartChar: idieresis
Encoding: 239 239 130
Width: 366
Flags: W
LayerCount: 2
Fore
SplineSet
182 1632 m 2,0,1
 119 1632 119 1632 50 1575 c 1,2,3
 50 1475 50 1475 126 1443 c 1,4,-1
 201 1443 l 1,5,6
 277 1489 277 1489 277 1518 c 2,7,-1
 277 1556 l 1,8,9
 232 1632 232 1632 201 1632 c 2,10,-1
 182 1632 l 2,0,1
121 1171 m 1,11,12
 102 961 102 961 83 697 c 1,13,14
 102 358 102 358 102 262 c 1,15,16
 83 88 83 88 83 73 c 1,17,18
 125 17 125 17 140 17 c 2,19,-1
 177 17 l 1,20,-1
 234 55 l 1,21,22
 234 126 234 126 215 225 c 1,23,-1
 234 300 l 1,24,25
 216 468 216 468 196 508 c 1,26,-1
 215 508 l 1,27,28
 177 1004 177 1004 177 1096 c 2,29,-1
 177 1134 l 2,30,31
 177 1165 177 1165 139 1171 c 1,32,-1
 121 1171 l 1,11,12
EndSplineSet
Validated: 9
EndChar

StartChar: ograve
Encoding: 242 242 131
Width: 1310
Flags: W
LayerCount: 2
Fore
SplineSet
428 1096 m 0,1,2
 50 838 50 838 50 662 c 1,3,4
 77 303 77 303 126 303 c 1,5,6
 126 63 126 63 673 -18 c 1,7,8
 951 -18 951 -18 1221 416 c 1,9,-1
 1221 530 l 2,10,11
 1221 779 1221 779 1107 945 c 1,12,13
 945 1134 945 1134 824 1134 c 1,14,15
 824 1160 824 1160 654 1172 c 1,16,0
 484 1134 484 1134 428 1096 c 0,1,2
352 907 m 1,18,19
 419 1007 419 1007 730 1058 c 1,20,21
 941 1003 941 1003 1013 888 c 1,22,23
 1085 681 1085 681 1107 681 c 1,24,25
 1107 638 1107 638 1089 605 c 1,26,27
 1107 572 1107 572 1107 530 c 2,28,-1
 1107 473 l 1,29,30
 919 76 919 76 635 76 c 0,31,32
 528 76 528 76 428 152 c 1,33,34
 235 152 235 152 163 549 c 1,35,17
 163 766 163 766 352 907 c 1,18,19
EndSplineSet
Validated: 9
EndChar

StartChar: oacute
Encoding: 243 243 132
Width: 1310
Flags: W
LayerCount: 2
Fore
SplineSet
428 1096 m 0,1,2
 50 838 50 838 50 662 c 1,3,4
 77 303 77 303 126 303 c 1,5,6
 126 63 126 63 673 -18 c 1,7,8
 951 -18 951 -18 1221 416 c 1,9,-1
 1221 530 l 2,10,11
 1221 779 1221 779 1107 945 c 1,12,13
 945 1134 945 1134 824 1134 c 1,14,15
 824 1160 824 1160 654 1172 c 1,16,0
 484 1134 484 1134 428 1096 c 0,1,2
352 907 m 1,18,19
 419 1007 419 1007 730 1058 c 1,20,21
 941 1003 941 1003 1013 888 c 1,22,23
 1085 681 1085 681 1107 681 c 1,24,25
 1107 638 1107 638 1089 605 c 1,26,27
 1107 572 1107 572 1107 530 c 2,28,-1
 1107 473 l 1,29,30
 919 76 919 76 635 76 c 0,31,32
 528 76 528 76 428 152 c 1,33,34
 235 152 235 152 163 549 c 1,35,17
 163 766 163 766 352 907 c 1,18,19
EndSplineSet
Validated: 9
EndChar

StartChar: ocircumflex
Encoding: 244 244 133
Width: 1310
Flags: W
LayerCount: 2
Fore
SplineSet
428 1096 m 0,1,2
 50 838 50 838 50 662 c 1,3,4
 77 303 77 303 126 303 c 1,5,6
 126 63 126 63 673 -18 c 1,7,8
 951 -18 951 -18 1221 416 c 1,9,-1
 1221 530 l 2,10,11
 1221 779 1221 779 1107 945 c 1,12,13
 945 1134 945 1134 824 1134 c 1,14,15
 824 1160 824 1160 654 1172 c 1,16,0
 484 1134 484 1134 428 1096 c 0,1,2
352 907 m 1,18,19
 419 1007 419 1007 730 1058 c 1,20,21
 941 1003 941 1003 1013 888 c 1,22,23
 1085 681 1085 681 1107 681 c 1,24,25
 1107 638 1107 638 1089 605 c 1,26,27
 1107 572 1107 572 1107 530 c 2,28,-1
 1107 473 l 1,29,30
 919 76 919 76 635 76 c 0,31,32
 528 76 528 76 428 152 c 1,33,34
 235 152 235 152 163 549 c 1,35,17
 163 766 163 766 352 907 c 1,18,19
EndSplineSet
Validated: 9
EndChar

StartChar: otilde
Encoding: 245 245 134
Width: 1310
Flags: W
LayerCount: 2
Fore
SplineSet
428 1096 m 0,1,2
 50 838 50 838 50 662 c 1,3,4
 77 303 77 303 126 303 c 1,5,6
 126 63 126 63 673 -18 c 1,7,8
 951 -18 951 -18 1221 416 c 1,9,-1
 1221 530 l 2,10,11
 1221 779 1221 779 1107 945 c 1,12,13
 945 1134 945 1134 824 1134 c 1,14,15
 824 1160 824 1160 654 1172 c 1,16,0
 484 1134 484 1134 428 1096 c 0,1,2
352 907 m 1,18,19
 419 1007 419 1007 730 1058 c 1,20,21
 941 1003 941 1003 1013 888 c 1,22,23
 1085 681 1085 681 1107 681 c 1,24,25
 1107 638 1107 638 1089 605 c 1,26,27
 1107 572 1107 572 1107 530 c 2,28,-1
 1107 473 l 1,29,30
 919 76 919 76 635 76 c 0,31,32
 528 76 528 76 428 152 c 1,33,34
 235 152 235 152 163 549 c 1,35,17
 163 766 163 766 352 907 c 1,18,19
EndSplineSet
Validated: 9
EndChar

StartChar: odieresis
Encoding: 246 246 135
Width: 1310
Flags: W
LayerCount: 2
Fore
SplineSet
428 1096 m 0,1,2
 50 838 50 838 50 662 c 1,3,4
 77 303 77 303 126 303 c 1,5,6
 126 63 126 63 673 -18 c 1,7,8
 951 -18 951 -18 1221 416 c 1,9,-1
 1221 530 l 2,10,11
 1221 779 1221 779 1107 945 c 1,12,13
 945 1134 945 1134 824 1134 c 1,14,15
 824 1160 824 1160 654 1172 c 1,16,0
 484 1134 484 1134 428 1096 c 0,1,2
352 907 m 1,18,19
 419 1007 419 1007 730 1058 c 1,20,21
 941 1003 941 1003 1013 888 c 1,22,23
 1085 681 1085 681 1107 681 c 1,24,25
 1107 638 1107 638 1089 605 c 1,26,27
 1107 572 1107 572 1107 530 c 2,28,-1
 1107 473 l 1,29,30
 919 76 919 76 635 76 c 0,31,32
 528 76 528 76 428 152 c 1,33,34
 235 152 235 152 163 549 c 1,35,17
 163 766 163 766 352 907 c 1,18,19
EndSplineSet
Validated: 9
EndChar
